<mxfile host="app.diagrams.net" modified="2023-04-23T15:47:21.227Z" agent="Mozilla/5.0 (Windows NT 10.0; Win64; x64) AppleWebKit/537.36 (KHTML, like Gecko) Chrome/111.0.0.0 Safari/537.36 OPR/97.0.0.0" etag="8lN803eIDaMZBzvXtwsL" version="21.2.1" type="device" pages="4">
  <diagram name="Partner_Of" id="ujtlbcHcg-S4j7FF8jXa">
    <mxGraphModel dx="1009" dy="590" grid="1" gridSize="10" guides="1" tooltips="1" connect="1" arrows="1" fold="1" page="1" pageScale="1" pageWidth="850" pageHeight="1100" math="0" shadow="0">
      <root>
        <mxCell id="0" />
        <mxCell id="1" parent="0" />
        <mxCell id="4JhxKs-FaL6x-zUJN2TE-6" value="" style="ellipse;whiteSpace=wrap;html=1;aspect=fixed;" parent="1" vertex="1">
          <mxGeometry y="80" width="80" height="80" as="geometry" />
        </mxCell>
        <mxCell id="4JhxKs-FaL6x-zUJN2TE-7" value="" style="ellipse;whiteSpace=wrap;html=1;aspect=fixed;" parent="1" vertex="1">
          <mxGeometry x="20" y="80" width="40" height="40" as="geometry" />
        </mxCell>
        <mxCell id="4JhxKs-FaL6x-zUJN2TE-44" value="1" style="text;html=1;strokeColor=none;fillColor=none;align=center;verticalAlign=middle;whiteSpace=wrap;rounded=0;" parent="1" vertex="1">
          <mxGeometry x="20" y="80" width="40" height="40" as="geometry" />
        </mxCell>
        <mxCell id="4JhxKs-FaL6x-zUJN2TE-45" value="Никита" style="text;html=1;strokeColor=none;fillColor=none;align=center;verticalAlign=middle;whiteSpace=wrap;rounded=0;" parent="1" vertex="1">
          <mxGeometry x="10" y="120" width="60" height="30" as="geometry" />
        </mxCell>
        <mxCell id="4JhxKs-FaL6x-zUJN2TE-50" value="" style="ellipse;whiteSpace=wrap;html=1;aspect=fixed;" parent="1" vertex="1">
          <mxGeometry x="200" y="80" width="80" height="80" as="geometry" />
        </mxCell>
        <mxCell id="4JhxKs-FaL6x-zUJN2TE-51" value="" style="ellipse;whiteSpace=wrap;html=1;aspect=fixed;" parent="1" vertex="1">
          <mxGeometry x="220" y="80" width="40" height="40" as="geometry" />
        </mxCell>
        <mxCell id="4JhxKs-FaL6x-zUJN2TE-52" value="3" style="text;html=1;strokeColor=none;fillColor=none;align=center;verticalAlign=middle;whiteSpace=wrap;rounded=0;" parent="1" vertex="1">
          <mxGeometry x="220" y="80" width="40" height="40" as="geometry" />
        </mxCell>
        <mxCell id="4JhxKs-FaL6x-zUJN2TE-53" value="Даниил" style="text;html=1;strokeColor=none;fillColor=none;align=center;verticalAlign=middle;whiteSpace=wrap;rounded=0;" parent="1" vertex="1">
          <mxGeometry x="210" y="120" width="60" height="30" as="geometry" />
        </mxCell>
        <mxCell id="4JhxKs-FaL6x-zUJN2TE-54" value="" style="ellipse;whiteSpace=wrap;html=1;aspect=fixed;" parent="1" vertex="1">
          <mxGeometry x="400" y="80" width="80" height="80" as="geometry" />
        </mxCell>
        <mxCell id="4JhxKs-FaL6x-zUJN2TE-55" value="" style="ellipse;whiteSpace=wrap;html=1;aspect=fixed;" parent="1" vertex="1">
          <mxGeometry x="420" y="80" width="40" height="40" as="geometry" />
        </mxCell>
        <mxCell id="4JhxKs-FaL6x-zUJN2TE-56" value="5" style="text;html=1;strokeColor=none;fillColor=none;align=center;verticalAlign=middle;whiteSpace=wrap;rounded=0;" parent="1" vertex="1">
          <mxGeometry x="420" y="80" width="40" height="40" as="geometry" />
        </mxCell>
        <mxCell id="4JhxKs-FaL6x-zUJN2TE-57" value="Машука" style="text;html=1;strokeColor=none;fillColor=none;align=center;verticalAlign=middle;whiteSpace=wrap;rounded=0;" parent="1" vertex="1">
          <mxGeometry x="410" y="120" width="60" height="30" as="geometry" />
        </mxCell>
        <mxCell id="4JhxKs-FaL6x-zUJN2TE-58" value="" style="ellipse;whiteSpace=wrap;html=1;aspect=fixed;" parent="1" vertex="1">
          <mxGeometry x="600" y="80" width="80" height="80" as="geometry" />
        </mxCell>
        <mxCell id="4JhxKs-FaL6x-zUJN2TE-59" value="" style="ellipse;whiteSpace=wrap;html=1;aspect=fixed;" parent="1" vertex="1">
          <mxGeometry x="620" y="80" width="40" height="40" as="geometry" />
        </mxCell>
        <mxCell id="4JhxKs-FaL6x-zUJN2TE-60" value="7" style="text;html=1;strokeColor=none;fillColor=none;align=center;verticalAlign=middle;whiteSpace=wrap;rounded=0;" parent="1" vertex="1">
          <mxGeometry x="620" y="80" width="40" height="40" as="geometry" />
        </mxCell>
        <mxCell id="4JhxKs-FaL6x-zUJN2TE-61" value="Пётр" style="text;html=1;strokeColor=none;fillColor=none;align=center;verticalAlign=middle;whiteSpace=wrap;rounded=0;" parent="1" vertex="1">
          <mxGeometry x="610" y="120" width="60" height="30" as="geometry" />
        </mxCell>
        <mxCell id="4JhxKs-FaL6x-zUJN2TE-62" value="" style="ellipse;whiteSpace=wrap;html=1;aspect=fixed;" parent="1" vertex="1">
          <mxGeometry x="800" y="80" width="80" height="80" as="geometry" />
        </mxCell>
        <mxCell id="4JhxKs-FaL6x-zUJN2TE-63" value="" style="ellipse;whiteSpace=wrap;html=1;aspect=fixed;" parent="1" vertex="1">
          <mxGeometry x="820" y="80" width="40" height="40" as="geometry" />
        </mxCell>
        <mxCell id="4JhxKs-FaL6x-zUJN2TE-64" value="9" style="text;html=1;strokeColor=none;fillColor=none;align=center;verticalAlign=middle;whiteSpace=wrap;rounded=0;" parent="1" vertex="1">
          <mxGeometry x="820" y="80" width="40" height="40" as="geometry" />
        </mxCell>
        <mxCell id="4JhxKs-FaL6x-zUJN2TE-65" value="Альберт" style="text;html=1;strokeColor=none;fillColor=none;align=center;verticalAlign=middle;whiteSpace=wrap;rounded=0;" parent="1" vertex="1">
          <mxGeometry x="810" y="120" width="60" height="30" as="geometry" />
        </mxCell>
        <mxCell id="4JhxKs-FaL6x-zUJN2TE-104" value="" style="ellipse;whiteSpace=wrap;html=1;aspect=fixed;" parent="1" vertex="1">
          <mxGeometry y="320" width="80" height="80" as="geometry" />
        </mxCell>
        <mxCell id="4JhxKs-FaL6x-zUJN2TE-105" value="" style="ellipse;whiteSpace=wrap;html=1;aspect=fixed;" parent="1" vertex="1">
          <mxGeometry x="20" y="320" width="40" height="40" as="geometry" />
        </mxCell>
        <mxCell id="4JhxKs-FaL6x-zUJN2TE-106" value="2" style="text;html=1;strokeColor=none;fillColor=none;align=center;verticalAlign=middle;whiteSpace=wrap;rounded=0;" parent="1" vertex="1">
          <mxGeometry x="20" y="320" width="40" height="40" as="geometry" />
        </mxCell>
        <mxCell id="4JhxKs-FaL6x-zUJN2TE-107" value="Антон" style="text;html=1;strokeColor=none;fillColor=none;align=center;verticalAlign=middle;whiteSpace=wrap;rounded=0;" parent="1" vertex="1">
          <mxGeometry x="10" y="360" width="60" height="30" as="geometry" />
        </mxCell>
        <mxCell id="4JhxKs-FaL6x-zUJN2TE-108" value="" style="ellipse;whiteSpace=wrap;html=1;aspect=fixed;" parent="1" vertex="1">
          <mxGeometry x="200" y="320" width="80" height="80" as="geometry" />
        </mxCell>
        <mxCell id="4JhxKs-FaL6x-zUJN2TE-109" value="" style="ellipse;whiteSpace=wrap;html=1;aspect=fixed;" parent="1" vertex="1">
          <mxGeometry x="220" y="320" width="40" height="40" as="geometry" />
        </mxCell>
        <mxCell id="4JhxKs-FaL6x-zUJN2TE-110" value="4" style="text;html=1;strokeColor=none;fillColor=none;align=center;verticalAlign=middle;whiteSpace=wrap;rounded=0;" parent="1" vertex="1">
          <mxGeometry x="220" y="320" width="40" height="40" as="geometry" />
        </mxCell>
        <mxCell id="4JhxKs-FaL6x-zUJN2TE-111" value="Олег" style="text;html=1;strokeColor=none;fillColor=none;align=center;verticalAlign=middle;whiteSpace=wrap;rounded=0;" parent="1" vertex="1">
          <mxGeometry x="210" y="360" width="60" height="30" as="geometry" />
        </mxCell>
        <mxCell id="4JhxKs-FaL6x-zUJN2TE-112" value="" style="ellipse;whiteSpace=wrap;html=1;aspect=fixed;" parent="1" vertex="1">
          <mxGeometry x="400" y="320" width="80" height="80" as="geometry" />
        </mxCell>
        <mxCell id="4JhxKs-FaL6x-zUJN2TE-113" value="" style="ellipse;whiteSpace=wrap;html=1;aspect=fixed;" parent="1" vertex="1">
          <mxGeometry x="420" y="320" width="40" height="40" as="geometry" />
        </mxCell>
        <mxCell id="4JhxKs-FaL6x-zUJN2TE-114" value="6" style="text;html=1;strokeColor=none;fillColor=none;align=center;verticalAlign=middle;whiteSpace=wrap;rounded=0;" parent="1" vertex="1">
          <mxGeometry x="420" y="320" width="40" height="40" as="geometry" />
        </mxCell>
        <mxCell id="4JhxKs-FaL6x-zUJN2TE-115" value="Ведьма" style="text;html=1;strokeColor=none;fillColor=none;align=center;verticalAlign=middle;whiteSpace=wrap;rounded=0;" parent="1" vertex="1">
          <mxGeometry x="410" y="360" width="60" height="30" as="geometry" />
        </mxCell>
        <mxCell id="4JhxKs-FaL6x-zUJN2TE-116" value="" style="ellipse;whiteSpace=wrap;html=1;aspect=fixed;" parent="1" vertex="1">
          <mxGeometry x="600" y="320" width="80" height="80" as="geometry" />
        </mxCell>
        <mxCell id="4JhxKs-FaL6x-zUJN2TE-117" value="" style="ellipse;whiteSpace=wrap;html=1;aspect=fixed;" parent="1" vertex="1">
          <mxGeometry x="620" y="320" width="40" height="40" as="geometry" />
        </mxCell>
        <mxCell id="4JhxKs-FaL6x-zUJN2TE-118" value="8" style="text;html=1;strokeColor=none;fillColor=none;align=center;verticalAlign=middle;whiteSpace=wrap;rounded=0;" parent="1" vertex="1">
          <mxGeometry x="620" y="320" width="40" height="40" as="geometry" />
        </mxCell>
        <mxCell id="4JhxKs-FaL6x-zUJN2TE-119" value="Саня" style="text;html=1;strokeColor=none;fillColor=none;align=center;verticalAlign=middle;whiteSpace=wrap;rounded=0;" parent="1" vertex="1">
          <mxGeometry x="610" y="360" width="60" height="30" as="geometry" />
        </mxCell>
        <mxCell id="4JhxKs-FaL6x-zUJN2TE-120" value="" style="ellipse;whiteSpace=wrap;html=1;aspect=fixed;" parent="1" vertex="1">
          <mxGeometry x="800" y="320" width="80" height="80" as="geometry" />
        </mxCell>
        <mxCell id="4JhxKs-FaL6x-zUJN2TE-121" value="" style="ellipse;whiteSpace=wrap;html=1;aspect=fixed;" parent="1" vertex="1">
          <mxGeometry x="820" y="320" width="40" height="40" as="geometry" />
        </mxCell>
        <mxCell id="4JhxKs-FaL6x-zUJN2TE-122" value="10" style="text;html=1;strokeColor=none;fillColor=none;align=center;verticalAlign=middle;whiteSpace=wrap;rounded=0;" parent="1" vertex="1">
          <mxGeometry x="820" y="320" width="40" height="40" as="geometry" />
        </mxCell>
        <mxCell id="4JhxKs-FaL6x-zUJN2TE-123" value="Падре" style="text;html=1;strokeColor=none;fillColor=none;align=center;verticalAlign=middle;whiteSpace=wrap;rounded=0;" parent="1" vertex="1">
          <mxGeometry x="810" y="360" width="60" height="30" as="geometry" />
        </mxCell>
        <mxCell id="4JhxKs-FaL6x-zUJN2TE-125" value="" style="endArrow=classic;html=1;rounded=0;entryX=0.019;entryY=0.898;entryDx=0;entryDy=0;exitX=1;exitY=0;exitDx=0;exitDy=0;entryPerimeter=0;" parent="1" source="4JhxKs-FaL6x-zUJN2TE-104" target="4JhxKs-FaL6x-zUJN2TE-53" edge="1">
          <mxGeometry width="50" height="50" relative="1" as="geometry">
            <mxPoint x="60" y="350" as="sourcePoint" />
            <mxPoint x="110" y="300" as="targetPoint" />
            <Array as="points" />
          </mxGeometry>
        </mxCell>
        <mxCell id="4JhxKs-FaL6x-zUJN2TE-126" value="" style="endArrow=classic;html=1;rounded=0;exitX=0;exitY=0.5;exitDx=0;exitDy=0;entryX=1;entryY=0.5;entryDx=0;entryDy=0;" parent="1" source="4JhxKs-FaL6x-zUJN2TE-50" target="4JhxKs-FaL6x-zUJN2TE-6" edge="1">
          <mxGeometry width="50" height="50" relative="1" as="geometry">
            <mxPoint x="120" y="160" as="sourcePoint" />
            <mxPoint x="170" y="110" as="targetPoint" />
          </mxGeometry>
        </mxCell>
        <mxCell id="4JhxKs-FaL6x-zUJN2TE-127" value="" style="endArrow=classic;html=1;rounded=0;exitX=0.5;exitY=1;exitDx=0;exitDy=0;entryX=0.5;entryY=0;entryDx=0;entryDy=0;" parent="1" source="4JhxKs-FaL6x-zUJN2TE-6" target="4JhxKs-FaL6x-zUJN2TE-104" edge="1">
          <mxGeometry width="50" height="50" relative="1" as="geometry">
            <mxPoint x="150" y="400" as="sourcePoint" />
            <mxPoint x="200" y="350" as="targetPoint" />
          </mxGeometry>
        </mxCell>
        <mxCell id="4JhxKs-FaL6x-zUJN2TE-128" value="" style="endArrow=classic;html=1;rounded=0;exitX=0;exitY=0.5;exitDx=0;exitDy=0;entryX=1;entryY=0.5;entryDx=0;entryDy=0;" parent="1" source="4JhxKs-FaL6x-zUJN2TE-108" target="4JhxKs-FaL6x-zUJN2TE-104" edge="1">
          <mxGeometry width="50" height="50" relative="1" as="geometry">
            <mxPoint x="160" y="330" as="sourcePoint" />
            <mxPoint x="210" y="280" as="targetPoint" />
          </mxGeometry>
        </mxCell>
        <mxCell id="4JhxKs-FaL6x-zUJN2TE-129" value="" style="endArrow=classic;html=1;rounded=0;exitX=0.96;exitY=0.961;exitDx=0;exitDy=0;entryX=0;entryY=0;entryDx=0;entryDy=0;exitPerimeter=0;" parent="1" source="4JhxKs-FaL6x-zUJN2TE-53" target="4JhxKs-FaL6x-zUJN2TE-112" edge="1">
          <mxGeometry width="50" height="50" relative="1" as="geometry">
            <mxPoint x="310" y="270" as="sourcePoint" />
            <mxPoint x="360" y="220" as="targetPoint" />
          </mxGeometry>
        </mxCell>
        <mxCell id="4JhxKs-FaL6x-zUJN2TE-130" value="" style="endArrow=classic;html=1;rounded=0;entryX=1;entryY=0;entryDx=0;entryDy=0;exitX=0.068;exitY=1.004;exitDx=0;exitDy=0;exitPerimeter=0;" parent="1" source="4JhxKs-FaL6x-zUJN2TE-57" target="4JhxKs-FaL6x-zUJN2TE-108" edge="1">
          <mxGeometry width="50" height="50" relative="1" as="geometry">
            <mxPoint x="410" y="150" as="sourcePoint" />
            <mxPoint x="380" y="260" as="targetPoint" />
          </mxGeometry>
        </mxCell>
        <mxCell id="4JhxKs-FaL6x-zUJN2TE-131" value="" style="endArrow=classic;html=1;rounded=0;entryX=0.915;entryY=0.797;entryDx=0;entryDy=0;exitX=0;exitY=0;exitDx=0;exitDy=0;entryPerimeter=0;" parent="1" source="4JhxKs-FaL6x-zUJN2TE-116" target="4JhxKs-FaL6x-zUJN2TE-50" edge="1">
          <mxGeometry width="50" height="50" relative="1" as="geometry">
            <mxPoint x="500" y="270" as="sourcePoint" />
            <mxPoint x="550" y="220" as="targetPoint" />
          </mxGeometry>
        </mxCell>
        <mxCell id="4JhxKs-FaL6x-zUJN2TE-132" value="" style="endArrow=classic;html=1;rounded=0;exitX=1;exitY=0;exitDx=0;exitDy=0;entryX=0;entryY=1;entryDx=0;entryDy=0;" parent="1" source="4JhxKs-FaL6x-zUJN2TE-112" target="4JhxKs-FaL6x-zUJN2TE-58" edge="1">
          <mxGeometry width="50" height="50" relative="1" as="geometry">
            <mxPoint x="520" y="270" as="sourcePoint" />
            <mxPoint x="570" y="220" as="targetPoint" />
          </mxGeometry>
        </mxCell>
        <mxCell id="4JhxKs-FaL6x-zUJN2TE-133" value="" style="endArrow=classic;html=1;rounded=0;exitX=1;exitY=0.5;exitDx=0;exitDy=0;entryX=0;entryY=0.5;entryDx=0;entryDy=0;" parent="1" source="4JhxKs-FaL6x-zUJN2TE-112" target="4JhxKs-FaL6x-zUJN2TE-116" edge="1">
          <mxGeometry width="50" height="50" relative="1" as="geometry">
            <mxPoint x="460" y="280" as="sourcePoint" />
            <mxPoint x="510" y="230" as="targetPoint" />
          </mxGeometry>
        </mxCell>
        <mxCell id="4JhxKs-FaL6x-zUJN2TE-134" value="" style="endArrow=classic;html=1;rounded=0;exitX=0.982;exitY=0.902;exitDx=0;exitDy=0;exitPerimeter=0;entryX=0;entryY=0;entryDx=0;entryDy=0;" parent="1" source="4JhxKs-FaL6x-zUJN2TE-61" target="4JhxKs-FaL6x-zUJN2TE-120" edge="1">
          <mxGeometry width="50" height="50" relative="1" as="geometry">
            <mxPoint x="710" y="270" as="sourcePoint" />
            <mxPoint x="760" y="220" as="targetPoint" />
          </mxGeometry>
        </mxCell>
        <mxCell id="4JhxKs-FaL6x-zUJN2TE-135" value="" style="endArrow=classic;html=1;rounded=0;exitX=0.5;exitY=0;exitDx=0;exitDy=0;entryX=0.5;entryY=1;entryDx=0;entryDy=0;" parent="1" source="4JhxKs-FaL6x-zUJN2TE-122" target="4JhxKs-FaL6x-zUJN2TE-62" edge="1">
          <mxGeometry width="50" height="50" relative="1" as="geometry">
            <mxPoint x="830" y="260" as="sourcePoint" />
            <mxPoint x="880" y="210" as="targetPoint" />
          </mxGeometry>
        </mxCell>
        <mxCell id="4JhxKs-FaL6x-zUJN2TE-137" value="" style="curved=1;endArrow=classic;html=1;rounded=0;exitX=0.5;exitY=0;exitDx=0;exitDy=0;entryX=0.5;entryY=0;entryDx=0;entryDy=0;" parent="1" source="4JhxKs-FaL6x-zUJN2TE-44" target="4JhxKs-FaL6x-zUJN2TE-56" edge="1">
          <mxGeometry width="50" height="50" relative="1" as="geometry">
            <mxPoint x="110" y="70" as="sourcePoint" />
            <mxPoint x="160" y="20" as="targetPoint" />
            <Array as="points">
              <mxPoint x="110" y="20" />
              <mxPoint x="350" y="10" />
            </Array>
          </mxGeometry>
        </mxCell>
      </root>
    </mxGraphModel>
  </diagram>
  <diagram id="ofS1vx2naLf9pvISFK07" name="Lives_In">
    <mxGraphModel dx="2440" dy="2156" grid="1" gridSize="10" guides="1" tooltips="1" connect="1" arrows="1" fold="1" page="1" pageScale="1" pageWidth="850" pageHeight="1100" math="0" shadow="0">
      <root>
        <mxCell id="0" />
        <mxCell id="1" parent="0" />
        <mxCell id="FGnUd3RVyz8pzDmdU_dD-4" value="" style="ellipse;whiteSpace=wrap;html=1;aspect=fixed;" vertex="1" parent="1">
          <mxGeometry x="20" y="40" width="80" height="80" as="geometry" />
        </mxCell>
        <mxCell id="FGnUd3RVyz8pzDmdU_dD-5" value="" style="ellipse;whiteSpace=wrap;html=1;aspect=fixed;" vertex="1" parent="1">
          <mxGeometry x="40" y="40" width="40" height="40" as="geometry" />
        </mxCell>
        <mxCell id="FGnUd3RVyz8pzDmdU_dD-6" value="1" style="text;html=1;strokeColor=none;fillColor=none;align=center;verticalAlign=middle;whiteSpace=wrap;rounded=0;" vertex="1" parent="1">
          <mxGeometry x="40" y="40" width="40" height="40" as="geometry" />
        </mxCell>
        <mxCell id="FGnUd3RVyz8pzDmdU_dD-7" value="Никита" style="text;html=1;strokeColor=none;fillColor=none;align=center;verticalAlign=middle;whiteSpace=wrap;rounded=0;" vertex="1" parent="1">
          <mxGeometry x="30" y="80" width="60" height="30" as="geometry" />
        </mxCell>
        <mxCell id="FGnUd3RVyz8pzDmdU_dD-8" value="" style="ellipse;whiteSpace=wrap;html=1;aspect=fixed;" vertex="1" parent="1">
          <mxGeometry x="220" y="40" width="80" height="80" as="geometry" />
        </mxCell>
        <mxCell id="FGnUd3RVyz8pzDmdU_dD-9" value="" style="ellipse;whiteSpace=wrap;html=1;aspect=fixed;" vertex="1" parent="1">
          <mxGeometry x="240" y="40" width="40" height="40" as="geometry" />
        </mxCell>
        <mxCell id="FGnUd3RVyz8pzDmdU_dD-10" value="2" style="text;html=1;strokeColor=none;fillColor=none;align=center;verticalAlign=middle;whiteSpace=wrap;rounded=0;" vertex="1" parent="1">
          <mxGeometry x="240" y="40" width="40" height="40" as="geometry" />
        </mxCell>
        <mxCell id="FGnUd3RVyz8pzDmdU_dD-11" value="Антон" style="text;html=1;strokeColor=none;fillColor=none;align=center;verticalAlign=middle;whiteSpace=wrap;rounded=0;" vertex="1" parent="1">
          <mxGeometry x="230" y="80" width="60" height="30" as="geometry" />
        </mxCell>
        <mxCell id="FGnUd3RVyz8pzDmdU_dD-12" value="" style="ellipse;whiteSpace=wrap;html=1;aspect=fixed;" vertex="1" parent="1">
          <mxGeometry x="420" y="40" width="80" height="80" as="geometry" />
        </mxCell>
        <mxCell id="FGnUd3RVyz8pzDmdU_dD-13" value="" style="ellipse;whiteSpace=wrap;html=1;aspect=fixed;" vertex="1" parent="1">
          <mxGeometry x="440" y="40" width="40" height="40" as="geometry" />
        </mxCell>
        <mxCell id="FGnUd3RVyz8pzDmdU_dD-14" value="3" style="text;html=1;strokeColor=none;fillColor=none;align=center;verticalAlign=middle;whiteSpace=wrap;rounded=0;" vertex="1" parent="1">
          <mxGeometry x="440" y="40" width="40" height="40" as="geometry" />
        </mxCell>
        <mxCell id="FGnUd3RVyz8pzDmdU_dD-15" value="Даниил" style="text;html=1;strokeColor=none;fillColor=none;align=center;verticalAlign=middle;whiteSpace=wrap;rounded=0;" vertex="1" parent="1">
          <mxGeometry x="430" y="80" width="60" height="30" as="geometry" />
        </mxCell>
        <mxCell id="FGnUd3RVyz8pzDmdU_dD-17" value="" style="ellipse;whiteSpace=wrap;html=1;aspect=fixed;" vertex="1" parent="1">
          <mxGeometry x="620" y="40" width="80" height="80" as="geometry" />
        </mxCell>
        <mxCell id="FGnUd3RVyz8pzDmdU_dD-18" value="" style="ellipse;whiteSpace=wrap;html=1;aspect=fixed;" vertex="1" parent="1">
          <mxGeometry x="640" y="40" width="40" height="40" as="geometry" />
        </mxCell>
        <mxCell id="FGnUd3RVyz8pzDmdU_dD-19" value="4" style="text;html=1;strokeColor=none;fillColor=none;align=center;verticalAlign=middle;whiteSpace=wrap;rounded=0;" vertex="1" parent="1">
          <mxGeometry x="640" y="40" width="40" height="40" as="geometry" />
        </mxCell>
        <mxCell id="FGnUd3RVyz8pzDmdU_dD-20" value="Олег" style="text;html=1;strokeColor=none;fillColor=none;align=center;verticalAlign=middle;whiteSpace=wrap;rounded=0;" vertex="1" parent="1">
          <mxGeometry x="630" y="80" width="60" height="30" as="geometry" />
        </mxCell>
        <mxCell id="FGnUd3RVyz8pzDmdU_dD-21" value="" style="ellipse;whiteSpace=wrap;html=1;aspect=fixed;" vertex="1" parent="1">
          <mxGeometry x="820" y="40" width="80" height="80" as="geometry" />
        </mxCell>
        <mxCell id="FGnUd3RVyz8pzDmdU_dD-22" value="" style="ellipse;whiteSpace=wrap;html=1;aspect=fixed;" vertex="1" parent="1">
          <mxGeometry x="840" y="40" width="40" height="40" as="geometry" />
        </mxCell>
        <mxCell id="FGnUd3RVyz8pzDmdU_dD-23" value="5" style="text;html=1;strokeColor=none;fillColor=none;align=center;verticalAlign=middle;whiteSpace=wrap;rounded=0;" vertex="1" parent="1">
          <mxGeometry x="840" y="40" width="40" height="40" as="geometry" />
        </mxCell>
        <mxCell id="FGnUd3RVyz8pzDmdU_dD-24" value="Машука" style="text;html=1;strokeColor=none;fillColor=none;align=center;verticalAlign=middle;whiteSpace=wrap;rounded=0;" vertex="1" parent="1">
          <mxGeometry x="830" y="80" width="60" height="30" as="geometry" />
        </mxCell>
        <mxCell id="FGnUd3RVyz8pzDmdU_dD-25" value="" style="ellipse;whiteSpace=wrap;html=1;aspect=fixed;" vertex="1" parent="1">
          <mxGeometry x="1020" y="40" width="80" height="80" as="geometry" />
        </mxCell>
        <mxCell id="FGnUd3RVyz8pzDmdU_dD-26" value="" style="ellipse;whiteSpace=wrap;html=1;aspect=fixed;" vertex="1" parent="1">
          <mxGeometry x="1040" y="40" width="40" height="40" as="geometry" />
        </mxCell>
        <mxCell id="FGnUd3RVyz8pzDmdU_dD-27" value="6" style="text;html=1;strokeColor=none;fillColor=none;align=center;verticalAlign=middle;whiteSpace=wrap;rounded=0;" vertex="1" parent="1">
          <mxGeometry x="1040" y="40" width="40" height="40" as="geometry" />
        </mxCell>
        <mxCell id="FGnUd3RVyz8pzDmdU_dD-28" value="Ведьма" style="text;html=1;strokeColor=none;fillColor=none;align=center;verticalAlign=middle;whiteSpace=wrap;rounded=0;" vertex="1" parent="1">
          <mxGeometry x="1030" y="80" width="60" height="30" as="geometry" />
        </mxCell>
        <mxCell id="FGnUd3RVyz8pzDmdU_dD-29" value="" style="ellipse;whiteSpace=wrap;html=1;aspect=fixed;" vertex="1" parent="1">
          <mxGeometry x="1220" y="40" width="80" height="80" as="geometry" />
        </mxCell>
        <mxCell id="FGnUd3RVyz8pzDmdU_dD-30" value="" style="ellipse;whiteSpace=wrap;html=1;aspect=fixed;" vertex="1" parent="1">
          <mxGeometry x="1240" y="40" width="40" height="40" as="geometry" />
        </mxCell>
        <mxCell id="FGnUd3RVyz8pzDmdU_dD-31" value="7" style="text;html=1;strokeColor=none;fillColor=none;align=center;verticalAlign=middle;whiteSpace=wrap;rounded=0;" vertex="1" parent="1">
          <mxGeometry x="1240" y="40" width="40" height="40" as="geometry" />
        </mxCell>
        <mxCell id="FGnUd3RVyz8pzDmdU_dD-32" value="Пётр" style="text;html=1;strokeColor=none;fillColor=none;align=center;verticalAlign=middle;whiteSpace=wrap;rounded=0;" vertex="1" parent="1">
          <mxGeometry x="1230" y="80" width="60" height="30" as="geometry" />
        </mxCell>
        <mxCell id="FGnUd3RVyz8pzDmdU_dD-33" value="" style="ellipse;whiteSpace=wrap;html=1;aspect=fixed;" vertex="1" parent="1">
          <mxGeometry x="1420" y="40" width="80" height="80" as="geometry" />
        </mxCell>
        <mxCell id="FGnUd3RVyz8pzDmdU_dD-34" value="" style="ellipse;whiteSpace=wrap;html=1;aspect=fixed;" vertex="1" parent="1">
          <mxGeometry x="1440" y="40" width="40" height="40" as="geometry" />
        </mxCell>
        <mxCell id="FGnUd3RVyz8pzDmdU_dD-35" value="8" style="text;html=1;strokeColor=none;fillColor=none;align=center;verticalAlign=middle;whiteSpace=wrap;rounded=0;" vertex="1" parent="1">
          <mxGeometry x="1440" y="40" width="40" height="40" as="geometry" />
        </mxCell>
        <mxCell id="FGnUd3RVyz8pzDmdU_dD-36" value="Саня" style="text;html=1;strokeColor=none;fillColor=none;align=center;verticalAlign=middle;whiteSpace=wrap;rounded=0;" vertex="1" parent="1">
          <mxGeometry x="1430" y="80" width="60" height="30" as="geometry" />
        </mxCell>
        <mxCell id="FGnUd3RVyz8pzDmdU_dD-37" value="" style="ellipse;whiteSpace=wrap;html=1;aspect=fixed;" vertex="1" parent="1">
          <mxGeometry x="1620" y="40" width="80" height="80" as="geometry" />
        </mxCell>
        <mxCell id="FGnUd3RVyz8pzDmdU_dD-38" value="" style="ellipse;whiteSpace=wrap;html=1;aspect=fixed;" vertex="1" parent="1">
          <mxGeometry x="1640" y="40" width="40" height="40" as="geometry" />
        </mxCell>
        <mxCell id="FGnUd3RVyz8pzDmdU_dD-39" value="9" style="text;html=1;strokeColor=none;fillColor=none;align=center;verticalAlign=middle;whiteSpace=wrap;rounded=0;" vertex="1" parent="1">
          <mxGeometry x="1640" y="40" width="40" height="40" as="geometry" />
        </mxCell>
        <mxCell id="FGnUd3RVyz8pzDmdU_dD-40" value="Альберт" style="text;html=1;strokeColor=none;fillColor=none;align=center;verticalAlign=middle;whiteSpace=wrap;rounded=0;" vertex="1" parent="1">
          <mxGeometry x="1630" y="80" width="60" height="30" as="geometry" />
        </mxCell>
        <mxCell id="FGnUd3RVyz8pzDmdU_dD-41" value="" style="ellipse;whiteSpace=wrap;html=1;aspect=fixed;" vertex="1" parent="1">
          <mxGeometry x="1820" y="40" width="80" height="80" as="geometry" />
        </mxCell>
        <mxCell id="FGnUd3RVyz8pzDmdU_dD-42" value="" style="ellipse;whiteSpace=wrap;html=1;aspect=fixed;" vertex="1" parent="1">
          <mxGeometry x="1840" y="40" width="40" height="40" as="geometry" />
        </mxCell>
        <mxCell id="FGnUd3RVyz8pzDmdU_dD-43" value="10" style="text;html=1;strokeColor=none;fillColor=none;align=center;verticalAlign=middle;whiteSpace=wrap;rounded=0;" vertex="1" parent="1">
          <mxGeometry x="1840" y="40" width="40" height="40" as="geometry" />
        </mxCell>
        <mxCell id="FGnUd3RVyz8pzDmdU_dD-44" value="Падре" style="text;html=1;strokeColor=none;fillColor=none;align=center;verticalAlign=middle;whiteSpace=wrap;rounded=0;" vertex="1" parent="1">
          <mxGeometry x="1830" y="80" width="60" height="30" as="geometry" />
        </mxCell>
        <mxCell id="0LnJTRQPWqyOnk0sAHV9-4" value="" style="rounded=0;whiteSpace=wrap;html=1;" vertex="1" parent="1">
          <mxGeometry y="240" width="120" height="60" as="geometry" />
        </mxCell>
        <mxCell id="0LnJTRQPWqyOnk0sAHV9-5" value="" style="rounded=0;whiteSpace=wrap;html=1;" vertex="1" parent="1">
          <mxGeometry x="40" y="240" width="40" height="20" as="geometry" />
        </mxCell>
        <mxCell id="0LnJTRQPWqyOnk0sAHV9-6" value="1" style="text;html=1;strokeColor=none;fillColor=none;align=center;verticalAlign=middle;whiteSpace=wrap;rounded=0;" vertex="1" parent="1">
          <mxGeometry x="40" y="240" width="40" height="20" as="geometry" />
        </mxCell>
        <mxCell id="0LnJTRQPWqyOnk0sAHV9-7" value="Минск" style="text;html=1;strokeColor=none;fillColor=none;align=center;verticalAlign=middle;whiteSpace=wrap;rounded=0;" vertex="1" parent="1">
          <mxGeometry x="20" y="260" width="80" height="40" as="geometry" />
        </mxCell>
        <mxCell id="0LnJTRQPWqyOnk0sAHV9-8" value="" style="rounded=0;whiteSpace=wrap;html=1;" vertex="1" parent="1">
          <mxGeometry x="200" y="240" width="120" height="60" as="geometry" />
        </mxCell>
        <mxCell id="0LnJTRQPWqyOnk0sAHV9-9" value="" style="rounded=0;whiteSpace=wrap;html=1;" vertex="1" parent="1">
          <mxGeometry x="240" y="240" width="40" height="20" as="geometry" />
        </mxCell>
        <mxCell id="0LnJTRQPWqyOnk0sAHV9-10" value="2" style="text;html=1;strokeColor=none;fillColor=none;align=center;verticalAlign=middle;whiteSpace=wrap;rounded=0;" vertex="1" parent="1">
          <mxGeometry x="240" y="240" width="40" height="20" as="geometry" />
        </mxCell>
        <mxCell id="0LnJTRQPWqyOnk0sAHV9-11" value="Борисов" style="text;html=1;strokeColor=none;fillColor=none;align=center;verticalAlign=middle;whiteSpace=wrap;rounded=0;" vertex="1" parent="1">
          <mxGeometry x="220" y="260" width="80" height="40" as="geometry" />
        </mxCell>
        <mxCell id="0LnJTRQPWqyOnk0sAHV9-12" value="" style="rounded=0;whiteSpace=wrap;html=1;" vertex="1" parent="1">
          <mxGeometry x="400" y="240" width="120" height="60" as="geometry" />
        </mxCell>
        <mxCell id="0LnJTRQPWqyOnk0sAHV9-13" value="" style="rounded=0;whiteSpace=wrap;html=1;" vertex="1" parent="1">
          <mxGeometry x="440" y="240" width="40" height="20" as="geometry" />
        </mxCell>
        <mxCell id="0LnJTRQPWqyOnk0sAHV9-14" value="3" style="text;html=1;strokeColor=none;fillColor=none;align=center;verticalAlign=middle;whiteSpace=wrap;rounded=0;" vertex="1" parent="1">
          <mxGeometry x="440" y="240" width="40" height="20" as="geometry" />
        </mxCell>
        <mxCell id="0LnJTRQPWqyOnk0sAHV9-15" value="Гомель" style="text;html=1;strokeColor=none;fillColor=none;align=center;verticalAlign=middle;whiteSpace=wrap;rounded=0;" vertex="1" parent="1">
          <mxGeometry x="420" y="260" width="80" height="40" as="geometry" />
        </mxCell>
        <mxCell id="0LnJTRQPWqyOnk0sAHV9-16" value="" style="rounded=0;whiteSpace=wrap;html=1;" vertex="1" parent="1">
          <mxGeometry x="600" y="240" width="120" height="60" as="geometry" />
        </mxCell>
        <mxCell id="0LnJTRQPWqyOnk0sAHV9-17" value="" style="rounded=0;whiteSpace=wrap;html=1;" vertex="1" parent="1">
          <mxGeometry x="640" y="240" width="40" height="20" as="geometry" />
        </mxCell>
        <mxCell id="0LnJTRQPWqyOnk0sAHV9-18" value="4" style="text;html=1;strokeColor=none;fillColor=none;align=center;verticalAlign=middle;whiteSpace=wrap;rounded=0;" vertex="1" parent="1">
          <mxGeometry x="640" y="240" width="40" height="20" as="geometry" />
        </mxCell>
        <mxCell id="0LnJTRQPWqyOnk0sAHV9-19" value="Брест" style="text;html=1;strokeColor=none;fillColor=none;align=center;verticalAlign=middle;whiteSpace=wrap;rounded=0;" vertex="1" parent="1">
          <mxGeometry x="620" y="260" width="80" height="40" as="geometry" />
        </mxCell>
        <mxCell id="0LnJTRQPWqyOnk0sAHV9-20" value="" style="rounded=0;whiteSpace=wrap;html=1;" vertex="1" parent="1">
          <mxGeometry x="800" y="240" width="120" height="60" as="geometry" />
        </mxCell>
        <mxCell id="0LnJTRQPWqyOnk0sAHV9-21" value="" style="rounded=0;whiteSpace=wrap;html=1;" vertex="1" parent="1">
          <mxGeometry x="840" y="240" width="40" height="20" as="geometry" />
        </mxCell>
        <mxCell id="0LnJTRQPWqyOnk0sAHV9-22" value="5" style="text;html=1;strokeColor=none;fillColor=none;align=center;verticalAlign=middle;whiteSpace=wrap;rounded=0;" vertex="1" parent="1">
          <mxGeometry x="840" y="240" width="40" height="20" as="geometry" />
        </mxCell>
        <mxCell id="0LnJTRQPWqyOnk0sAHV9-23" value="Гродно" style="text;html=1;strokeColor=none;fillColor=none;align=center;verticalAlign=middle;whiteSpace=wrap;rounded=0;" vertex="1" parent="1">
          <mxGeometry x="820" y="260" width="80" height="40" as="geometry" />
        </mxCell>
        <mxCell id="0LnJTRQPWqyOnk0sAHV9-24" value="" style="rounded=0;whiteSpace=wrap;html=1;" vertex="1" parent="1">
          <mxGeometry x="1000" y="240" width="120" height="60" as="geometry" />
        </mxCell>
        <mxCell id="0LnJTRQPWqyOnk0sAHV9-25" value="" style="rounded=0;whiteSpace=wrap;html=1;" vertex="1" parent="1">
          <mxGeometry x="1040" y="240" width="40" height="20" as="geometry" />
        </mxCell>
        <mxCell id="0LnJTRQPWqyOnk0sAHV9-26" value="6" style="text;html=1;strokeColor=none;fillColor=none;align=center;verticalAlign=middle;whiteSpace=wrap;rounded=0;" vertex="1" parent="1">
          <mxGeometry x="1040" y="240" width="40" height="20" as="geometry" />
        </mxCell>
        <mxCell id="0LnJTRQPWqyOnk0sAHV9-27" value="Полоцк" style="text;html=1;strokeColor=none;fillColor=none;align=center;verticalAlign=middle;whiteSpace=wrap;rounded=0;" vertex="1" parent="1">
          <mxGeometry x="1020" y="260" width="80" height="40" as="geometry" />
        </mxCell>
        <mxCell id="0LnJTRQPWqyOnk0sAHV9-28" value="" style="rounded=0;whiteSpace=wrap;html=1;" vertex="1" parent="1">
          <mxGeometry x="1200" y="240" width="120" height="60" as="geometry" />
        </mxCell>
        <mxCell id="0LnJTRQPWqyOnk0sAHV9-29" value="" style="rounded=0;whiteSpace=wrap;html=1;" vertex="1" parent="1">
          <mxGeometry x="1240" y="240" width="40" height="20" as="geometry" />
        </mxCell>
        <mxCell id="0LnJTRQPWqyOnk0sAHV9-30" value="7" style="text;html=1;strokeColor=none;fillColor=none;align=center;verticalAlign=middle;whiteSpace=wrap;rounded=0;" vertex="1" parent="1">
          <mxGeometry x="1240" y="240" width="40" height="20" as="geometry" />
        </mxCell>
        <mxCell id="0LnJTRQPWqyOnk0sAHV9-31" value="Калинковичи" style="text;html=1;strokeColor=none;fillColor=none;align=center;verticalAlign=middle;whiteSpace=wrap;rounded=0;" vertex="1" parent="1">
          <mxGeometry x="1220" y="260" width="80" height="40" as="geometry" />
        </mxCell>
        <mxCell id="0LnJTRQPWqyOnk0sAHV9-32" value="" style="rounded=0;whiteSpace=wrap;html=1;" vertex="1" parent="1">
          <mxGeometry x="1400" y="240" width="120" height="60" as="geometry" />
        </mxCell>
        <mxCell id="0LnJTRQPWqyOnk0sAHV9-33" value="" style="rounded=0;whiteSpace=wrap;html=1;" vertex="1" parent="1">
          <mxGeometry x="1440" y="240" width="40" height="20" as="geometry" />
        </mxCell>
        <mxCell id="0LnJTRQPWqyOnk0sAHV9-34" value="8" style="text;html=1;strokeColor=none;fillColor=none;align=center;verticalAlign=middle;whiteSpace=wrap;rounded=0;" vertex="1" parent="1">
          <mxGeometry x="1440" y="240" width="40" height="20" as="geometry" />
        </mxCell>
        <mxCell id="0LnJTRQPWqyOnk0sAHV9-35" value="Светлогорск" style="text;html=1;strokeColor=none;fillColor=none;align=center;verticalAlign=middle;whiteSpace=wrap;rounded=0;" vertex="1" parent="1">
          <mxGeometry x="1420" y="260" width="80" height="40" as="geometry" />
        </mxCell>
        <mxCell id="0LnJTRQPWqyOnk0sAHV9-36" value="" style="rounded=0;whiteSpace=wrap;html=1;" vertex="1" parent="1">
          <mxGeometry x="1600" y="240" width="120" height="60" as="geometry" />
        </mxCell>
        <mxCell id="0LnJTRQPWqyOnk0sAHV9-37" value="" style="rounded=0;whiteSpace=wrap;html=1;" vertex="1" parent="1">
          <mxGeometry x="1640" y="240" width="40" height="20" as="geometry" />
        </mxCell>
        <mxCell id="0LnJTRQPWqyOnk0sAHV9-38" value="9" style="text;html=1;strokeColor=none;fillColor=none;align=center;verticalAlign=middle;whiteSpace=wrap;rounded=0;" vertex="1" parent="1">
          <mxGeometry x="1640" y="240" width="40" height="20" as="geometry" />
        </mxCell>
        <mxCell id="0LnJTRQPWqyOnk0sAHV9-39" value="Новополоцк" style="text;html=1;strokeColor=none;fillColor=none;align=center;verticalAlign=middle;whiteSpace=wrap;rounded=0;" vertex="1" parent="1">
          <mxGeometry x="1620" y="260" width="80" height="40" as="geometry" />
        </mxCell>
        <mxCell id="0LnJTRQPWqyOnk0sAHV9-40" value="" style="rounded=0;whiteSpace=wrap;html=1;" vertex="1" parent="1">
          <mxGeometry x="1800" y="240" width="120" height="60" as="geometry" />
        </mxCell>
        <mxCell id="0LnJTRQPWqyOnk0sAHV9-41" value="" style="rounded=0;whiteSpace=wrap;html=1;" vertex="1" parent="1">
          <mxGeometry x="1840" y="240" width="40" height="20" as="geometry" />
        </mxCell>
        <mxCell id="0LnJTRQPWqyOnk0sAHV9-42" value="10" style="text;html=1;strokeColor=none;fillColor=none;align=center;verticalAlign=middle;whiteSpace=wrap;rounded=0;" vertex="1" parent="1">
          <mxGeometry x="1840" y="240" width="40" height="20" as="geometry" />
        </mxCell>
        <mxCell id="0LnJTRQPWqyOnk0sAHV9-43" value="Солигорск" style="text;html=1;strokeColor=none;fillColor=none;align=center;verticalAlign=middle;whiteSpace=wrap;rounded=0;" vertex="1" parent="1">
          <mxGeometry x="1820" y="260" width="80" height="40" as="geometry" />
        </mxCell>
        <mxCell id="0LnJTRQPWqyOnk0sAHV9-44" style="edgeStyle=orthogonalEdgeStyle;rounded=0;orthogonalLoop=1;jettySize=auto;html=1;exitX=0.5;exitY=1;exitDx=0;exitDy=0;" edge="1" parent="1" source="0LnJTRQPWqyOnk0sAHV9-39" target="0LnJTRQPWqyOnk0sAHV9-39">
          <mxGeometry relative="1" as="geometry" />
        </mxCell>
        <mxCell id="0LnJTRQPWqyOnk0sAHV9-45" value="" style="endArrow=classic;html=1;rounded=0;exitX=0.5;exitY=1;exitDx=0;exitDy=0;entryX=0.5;entryY=0;entryDx=0;entryDy=0;" edge="1" parent="1" source="FGnUd3RVyz8pzDmdU_dD-4" target="0LnJTRQPWqyOnk0sAHV9-6">
          <mxGeometry width="50" height="50" relative="1" as="geometry">
            <mxPoint x="50" y="190" as="sourcePoint" />
            <mxPoint x="100" y="140" as="targetPoint" />
          </mxGeometry>
        </mxCell>
        <mxCell id="0LnJTRQPWqyOnk0sAHV9-46" value="" style="endArrow=classic;html=1;rounded=0;exitX=0.5;exitY=1;exitDx=0;exitDy=0;entryX=0.5;entryY=0;entryDx=0;entryDy=0;" edge="1" parent="1" source="FGnUd3RVyz8pzDmdU_dD-8" target="0LnJTRQPWqyOnk0sAHV9-10">
          <mxGeometry width="50" height="50" relative="1" as="geometry">
            <mxPoint x="70" y="130" as="sourcePoint" />
            <mxPoint x="70" y="250" as="targetPoint" />
          </mxGeometry>
        </mxCell>
        <mxCell id="0LnJTRQPWqyOnk0sAHV9-48" value="" style="endArrow=classic;html=1;rounded=0;exitX=0.5;exitY=1;exitDx=0;exitDy=0;entryX=0.5;entryY=0;entryDx=0;entryDy=0;" edge="1" parent="1" target="0LnJTRQPWqyOnk0sAHV9-18">
          <mxGeometry width="50" height="50" relative="1" as="geometry">
            <mxPoint x="460" y="120" as="sourcePoint" />
            <mxPoint x="460" y="240" as="targetPoint" />
          </mxGeometry>
        </mxCell>
        <mxCell id="0LnJTRQPWqyOnk0sAHV9-49" value="" style="endArrow=classic;html=1;rounded=0;exitX=0.5;exitY=1;exitDx=0;exitDy=0;entryX=0.5;entryY=0;entryDx=0;entryDy=0;" edge="1" parent="1" source="FGnUd3RVyz8pzDmdU_dD-17" target="0LnJTRQPWqyOnk0sAHV9-14">
          <mxGeometry width="50" height="50" relative="1" as="geometry">
            <mxPoint x="650" y="150" as="sourcePoint" />
            <mxPoint x="650" y="270" as="targetPoint" />
          </mxGeometry>
        </mxCell>
        <mxCell id="0LnJTRQPWqyOnk0sAHV9-50" value="" style="endArrow=classic;html=1;rounded=0;exitX=0.5;exitY=1;exitDx=0;exitDy=0;entryX=0.5;entryY=0;entryDx=0;entryDy=0;" edge="1" parent="1" source="FGnUd3RVyz8pzDmdU_dD-21" target="0LnJTRQPWqyOnk0sAHV9-34">
          <mxGeometry width="50" height="50" relative="1" as="geometry">
            <mxPoint x="870" y="160" as="sourcePoint" />
            <mxPoint x="1330" y="220" as="targetPoint" />
          </mxGeometry>
        </mxCell>
        <mxCell id="0LnJTRQPWqyOnk0sAHV9-51" value="" style="endArrow=classic;html=1;rounded=0;exitX=0.5;exitY=1;exitDx=0;exitDy=0;entryX=0.5;entryY=0;entryDx=0;entryDy=0;" edge="1" parent="1" source="FGnUd3RVyz8pzDmdU_dD-28" target="0LnJTRQPWqyOnk0sAHV9-26">
          <mxGeometry width="50" height="50" relative="1" as="geometry">
            <mxPoint x="800" y="160" as="sourcePoint" />
            <mxPoint x="840" y="210" as="targetPoint" />
          </mxGeometry>
        </mxCell>
        <mxCell id="0LnJTRQPWqyOnk0sAHV9-52" value="" style="endArrow=classic;html=1;rounded=0;exitX=0.5;exitY=1;exitDx=0;exitDy=0;entryX=0.5;entryY=0;entryDx=0;entryDy=0;" edge="1" parent="1" source="FGnUd3RVyz8pzDmdU_dD-29" target="0LnJTRQPWqyOnk0sAHV9-40">
          <mxGeometry width="50" height="50" relative="1" as="geometry">
            <mxPoint x="1290" y="170" as="sourcePoint" />
            <mxPoint x="1290" y="290" as="targetPoint" />
          </mxGeometry>
        </mxCell>
        <mxCell id="0LnJTRQPWqyOnk0sAHV9-53" value="" style="endArrow=classic;html=1;rounded=0;entryX=0.5;entryY=0;entryDx=0;entryDy=0;" edge="1" parent="1" target="0LnJTRQPWqyOnk0sAHV9-30">
          <mxGeometry width="50" height="50" relative="1" as="geometry">
            <mxPoint x="1460" y="120" as="sourcePoint" />
            <mxPoint x="1480" y="260" as="targetPoint" />
          </mxGeometry>
        </mxCell>
        <mxCell id="0LnJTRQPWqyOnk0sAHV9-54" value="" style="endArrow=classic;html=1;rounded=0;exitX=0.5;exitY=1;exitDx=0;exitDy=0;entryX=0.5;entryY=0;entryDx=0;entryDy=0;" edge="1" parent="1" source="FGnUd3RVyz8pzDmdU_dD-41" target="0LnJTRQPWqyOnk0sAHV9-38">
          <mxGeometry width="50" height="50" relative="1" as="geometry">
            <mxPoint x="1840" y="160" as="sourcePoint" />
            <mxPoint x="1840" y="280" as="targetPoint" />
          </mxGeometry>
        </mxCell>
        <mxCell id="0LnJTRQPWqyOnk0sAHV9-56" value="" style="endArrow=classic;html=1;rounded=0;exitX=0.5;exitY=1;exitDx=0;exitDy=0;entryX=0.5;entryY=0;entryDx=0;entryDy=0;" edge="1" parent="1" source="FGnUd3RVyz8pzDmdU_dD-37" target="0LnJTRQPWqyOnk0sAHV9-22">
          <mxGeometry width="50" height="50" relative="1" as="geometry">
            <mxPoint x="1660" y="130" as="sourcePoint" />
            <mxPoint x="1340" y="160" as="targetPoint" />
          </mxGeometry>
        </mxCell>
      </root>
    </mxGraphModel>
  </diagram>
  <diagram id="v6jgbg_9am1uii0FNRvK" name="Located_In">
    <mxGraphModel dx="3050" dy="2695" grid="1" gridSize="10" guides="1" tooltips="1" connect="1" arrows="1" fold="1" page="1" pageScale="1" pageWidth="850" pageHeight="1100" math="0" shadow="0">
      <root>
        <mxCell id="0" />
        <mxCell id="1" parent="0" />
        <mxCell id="42ET7DFAoSXNH3WcUd5_-42" value="" style="shape=hexagon;perimeter=hexagonPerimeter2;whiteSpace=wrap;html=1;fixedSize=1;" vertex="1" parent="1">
          <mxGeometry y="40" width="120" height="80" as="geometry" />
        </mxCell>
        <mxCell id="UCUpz7VWWSVjPhDcPd3a-1" value="" style="rounded=0;whiteSpace=wrap;html=1;" vertex="1" parent="1">
          <mxGeometry y="240" width="120" height="60" as="geometry" />
        </mxCell>
        <mxCell id="UCUpz7VWWSVjPhDcPd3a-2" value="" style="rounded=0;whiteSpace=wrap;html=1;" vertex="1" parent="1">
          <mxGeometry x="40" y="240" width="40" height="20" as="geometry" />
        </mxCell>
        <mxCell id="UCUpz7VWWSVjPhDcPd3a-3" value="1" style="text;html=1;strokeColor=none;fillColor=none;align=center;verticalAlign=middle;whiteSpace=wrap;rounded=0;" vertex="1" parent="1">
          <mxGeometry x="40" y="240" width="40" height="20" as="geometry" />
        </mxCell>
        <mxCell id="UCUpz7VWWSVjPhDcPd3a-4" value="Минск" style="text;html=1;strokeColor=none;fillColor=none;align=center;verticalAlign=middle;whiteSpace=wrap;rounded=0;" vertex="1" parent="1">
          <mxGeometry x="20" y="260" width="80" height="40" as="geometry" />
        </mxCell>
        <mxCell id="UCUpz7VWWSVjPhDcPd3a-5" value="" style="rounded=0;whiteSpace=wrap;html=1;" vertex="1" parent="1">
          <mxGeometry x="200" y="240" width="120" height="60" as="geometry" />
        </mxCell>
        <mxCell id="UCUpz7VWWSVjPhDcPd3a-6" value="" style="rounded=0;whiteSpace=wrap;html=1;" vertex="1" parent="1">
          <mxGeometry x="240" y="240" width="40" height="20" as="geometry" />
        </mxCell>
        <mxCell id="UCUpz7VWWSVjPhDcPd3a-7" value="2" style="text;html=1;strokeColor=none;fillColor=none;align=center;verticalAlign=middle;whiteSpace=wrap;rounded=0;" vertex="1" parent="1">
          <mxGeometry x="240" y="240" width="40" height="20" as="geometry" />
        </mxCell>
        <mxCell id="UCUpz7VWWSVjPhDcPd3a-8" value="Борисов" style="text;html=1;strokeColor=none;fillColor=none;align=center;verticalAlign=middle;whiteSpace=wrap;rounded=0;" vertex="1" parent="1">
          <mxGeometry x="220" y="260" width="80" height="40" as="geometry" />
        </mxCell>
        <mxCell id="UCUpz7VWWSVjPhDcPd3a-9" value="" style="rounded=0;whiteSpace=wrap;html=1;" vertex="1" parent="1">
          <mxGeometry x="400" y="240" width="120" height="60" as="geometry" />
        </mxCell>
        <mxCell id="UCUpz7VWWSVjPhDcPd3a-10" value="" style="rounded=0;whiteSpace=wrap;html=1;" vertex="1" parent="1">
          <mxGeometry x="440" y="240" width="40" height="20" as="geometry" />
        </mxCell>
        <mxCell id="UCUpz7VWWSVjPhDcPd3a-11" value="3" style="text;html=1;strokeColor=none;fillColor=none;align=center;verticalAlign=middle;whiteSpace=wrap;rounded=0;" vertex="1" parent="1">
          <mxGeometry x="440" y="240" width="40" height="20" as="geometry" />
        </mxCell>
        <mxCell id="UCUpz7VWWSVjPhDcPd3a-12" value="Гомель" style="text;html=1;strokeColor=none;fillColor=none;align=center;verticalAlign=middle;whiteSpace=wrap;rounded=0;" vertex="1" parent="1">
          <mxGeometry x="420" y="260" width="80" height="40" as="geometry" />
        </mxCell>
        <mxCell id="UCUpz7VWWSVjPhDcPd3a-13" value="" style="rounded=0;whiteSpace=wrap;html=1;" vertex="1" parent="1">
          <mxGeometry x="600" y="240" width="120" height="60" as="geometry" />
        </mxCell>
        <mxCell id="UCUpz7VWWSVjPhDcPd3a-14" value="" style="rounded=0;whiteSpace=wrap;html=1;" vertex="1" parent="1">
          <mxGeometry x="640" y="240" width="40" height="20" as="geometry" />
        </mxCell>
        <mxCell id="UCUpz7VWWSVjPhDcPd3a-15" value="4" style="text;html=1;strokeColor=none;fillColor=none;align=center;verticalAlign=middle;whiteSpace=wrap;rounded=0;" vertex="1" parent="1">
          <mxGeometry x="640" y="240" width="40" height="20" as="geometry" />
        </mxCell>
        <mxCell id="UCUpz7VWWSVjPhDcPd3a-16" value="Брест" style="text;html=1;strokeColor=none;fillColor=none;align=center;verticalAlign=middle;whiteSpace=wrap;rounded=0;" vertex="1" parent="1">
          <mxGeometry x="620" y="260" width="80" height="40" as="geometry" />
        </mxCell>
        <mxCell id="UCUpz7VWWSVjPhDcPd3a-17" value="" style="rounded=0;whiteSpace=wrap;html=1;" vertex="1" parent="1">
          <mxGeometry x="800" y="240" width="120" height="60" as="geometry" />
        </mxCell>
        <mxCell id="UCUpz7VWWSVjPhDcPd3a-18" value="" style="rounded=0;whiteSpace=wrap;html=1;" vertex="1" parent="1">
          <mxGeometry x="840" y="240" width="40" height="20" as="geometry" />
        </mxCell>
        <mxCell id="UCUpz7VWWSVjPhDcPd3a-19" value="5" style="text;html=1;strokeColor=none;fillColor=none;align=center;verticalAlign=middle;whiteSpace=wrap;rounded=0;" vertex="1" parent="1">
          <mxGeometry x="840" y="240" width="40" height="20" as="geometry" />
        </mxCell>
        <mxCell id="UCUpz7VWWSVjPhDcPd3a-20" value="Гродно" style="text;html=1;strokeColor=none;fillColor=none;align=center;verticalAlign=middle;whiteSpace=wrap;rounded=0;" vertex="1" parent="1">
          <mxGeometry x="820" y="260" width="80" height="40" as="geometry" />
        </mxCell>
        <mxCell id="UCUpz7VWWSVjPhDcPd3a-21" value="" style="rounded=0;whiteSpace=wrap;html=1;" vertex="1" parent="1">
          <mxGeometry x="1000" y="240" width="120" height="60" as="geometry" />
        </mxCell>
        <mxCell id="UCUpz7VWWSVjPhDcPd3a-22" value="" style="rounded=0;whiteSpace=wrap;html=1;" vertex="1" parent="1">
          <mxGeometry x="1040" y="240" width="40" height="20" as="geometry" />
        </mxCell>
        <mxCell id="UCUpz7VWWSVjPhDcPd3a-23" value="6" style="text;html=1;strokeColor=none;fillColor=none;align=center;verticalAlign=middle;whiteSpace=wrap;rounded=0;" vertex="1" parent="1">
          <mxGeometry x="1040" y="240" width="40" height="20" as="geometry" />
        </mxCell>
        <mxCell id="UCUpz7VWWSVjPhDcPd3a-24" value="Полоцк" style="text;html=1;strokeColor=none;fillColor=none;align=center;verticalAlign=middle;whiteSpace=wrap;rounded=0;" vertex="1" parent="1">
          <mxGeometry x="1020" y="260" width="80" height="40" as="geometry" />
        </mxCell>
        <mxCell id="UCUpz7VWWSVjPhDcPd3a-25" value="" style="rounded=0;whiteSpace=wrap;html=1;" vertex="1" parent="1">
          <mxGeometry x="1200" y="240" width="120" height="60" as="geometry" />
        </mxCell>
        <mxCell id="UCUpz7VWWSVjPhDcPd3a-26" value="" style="rounded=0;whiteSpace=wrap;html=1;" vertex="1" parent="1">
          <mxGeometry x="1240" y="240" width="40" height="20" as="geometry" />
        </mxCell>
        <mxCell id="UCUpz7VWWSVjPhDcPd3a-27" value="7" style="text;html=1;strokeColor=none;fillColor=none;align=center;verticalAlign=middle;whiteSpace=wrap;rounded=0;" vertex="1" parent="1">
          <mxGeometry x="1240" y="240" width="40" height="20" as="geometry" />
        </mxCell>
        <mxCell id="UCUpz7VWWSVjPhDcPd3a-28" value="Калинковичи" style="text;html=1;strokeColor=none;fillColor=none;align=center;verticalAlign=middle;whiteSpace=wrap;rounded=0;" vertex="1" parent="1">
          <mxGeometry x="1220" y="260" width="80" height="40" as="geometry" />
        </mxCell>
        <mxCell id="UCUpz7VWWSVjPhDcPd3a-29" value="" style="rounded=0;whiteSpace=wrap;html=1;" vertex="1" parent="1">
          <mxGeometry x="1400" y="240" width="120" height="60" as="geometry" />
        </mxCell>
        <mxCell id="UCUpz7VWWSVjPhDcPd3a-30" value="" style="rounded=0;whiteSpace=wrap;html=1;" vertex="1" parent="1">
          <mxGeometry x="1440" y="240" width="40" height="20" as="geometry" />
        </mxCell>
        <mxCell id="UCUpz7VWWSVjPhDcPd3a-31" value="8" style="text;html=1;strokeColor=none;fillColor=none;align=center;verticalAlign=middle;whiteSpace=wrap;rounded=0;" vertex="1" parent="1">
          <mxGeometry x="1440" y="240" width="40" height="20" as="geometry" />
        </mxCell>
        <mxCell id="UCUpz7VWWSVjPhDcPd3a-32" value="Светлогорск" style="text;html=1;strokeColor=none;fillColor=none;align=center;verticalAlign=middle;whiteSpace=wrap;rounded=0;" vertex="1" parent="1">
          <mxGeometry x="1420" y="260" width="80" height="40" as="geometry" />
        </mxCell>
        <mxCell id="UCUpz7VWWSVjPhDcPd3a-33" value="" style="rounded=0;whiteSpace=wrap;html=1;" vertex="1" parent="1">
          <mxGeometry x="1600" y="240" width="120" height="60" as="geometry" />
        </mxCell>
        <mxCell id="UCUpz7VWWSVjPhDcPd3a-34" value="" style="rounded=0;whiteSpace=wrap;html=1;" vertex="1" parent="1">
          <mxGeometry x="1640" y="240" width="40" height="20" as="geometry" />
        </mxCell>
        <mxCell id="UCUpz7VWWSVjPhDcPd3a-35" value="9" style="text;html=1;strokeColor=none;fillColor=none;align=center;verticalAlign=middle;whiteSpace=wrap;rounded=0;" vertex="1" parent="1">
          <mxGeometry x="1640" y="240" width="40" height="20" as="geometry" />
        </mxCell>
        <mxCell id="UCUpz7VWWSVjPhDcPd3a-36" value="Новополоцк" style="text;html=1;strokeColor=none;fillColor=none;align=center;verticalAlign=middle;whiteSpace=wrap;rounded=0;" vertex="1" parent="1">
          <mxGeometry x="1620" y="260" width="80" height="40" as="geometry" />
        </mxCell>
        <mxCell id="UCUpz7VWWSVjPhDcPd3a-37" value="" style="rounded=0;whiteSpace=wrap;html=1;" vertex="1" parent="1">
          <mxGeometry x="1800" y="240" width="120" height="60" as="geometry" />
        </mxCell>
        <mxCell id="UCUpz7VWWSVjPhDcPd3a-38" value="" style="rounded=0;whiteSpace=wrap;html=1;" vertex="1" parent="1">
          <mxGeometry x="1840" y="240" width="40" height="20" as="geometry" />
        </mxCell>
        <mxCell id="UCUpz7VWWSVjPhDcPd3a-39" value="10" style="text;html=1;strokeColor=none;fillColor=none;align=center;verticalAlign=middle;whiteSpace=wrap;rounded=0;" vertex="1" parent="1">
          <mxGeometry x="1840" y="240" width="40" height="20" as="geometry" />
        </mxCell>
        <mxCell id="UCUpz7VWWSVjPhDcPd3a-40" value="Солигорск" style="text;html=1;strokeColor=none;fillColor=none;align=center;verticalAlign=middle;whiteSpace=wrap;rounded=0;" vertex="1" parent="1">
          <mxGeometry x="1820" y="260" width="80" height="40" as="geometry" />
        </mxCell>
        <mxCell id="UCUpz7VWWSVjPhDcPd3a-41" style="edgeStyle=orthogonalEdgeStyle;rounded=0;orthogonalLoop=1;jettySize=auto;html=1;exitX=0.5;exitY=1;exitDx=0;exitDy=0;" edge="1" parent="1" source="UCUpz7VWWSVjPhDcPd3a-36" target="UCUpz7VWWSVjPhDcPd3a-36">
          <mxGeometry relative="1" as="geometry" />
        </mxCell>
        <mxCell id="UCUpz7VWWSVjPhDcPd3a-42" value="" style="shape=hexagon;perimeter=hexagonPerimeter2;whiteSpace=wrap;html=1;fixedSize=1;" vertex="1" parent="1">
          <mxGeometry x="20" y="40" width="80" height="30" as="geometry" />
        </mxCell>
        <mxCell id="UCUpz7VWWSVjPhDcPd3a-43" value="1" style="text;html=1;strokeColor=none;fillColor=none;align=center;verticalAlign=middle;whiteSpace=wrap;rounded=0;" vertex="1" parent="1">
          <mxGeometry x="30" y="41" width="60" height="30" as="geometry" />
        </mxCell>
        <mxCell id="UCUpz7VWWSVjPhDcPd3a-44" value="Skyline" style="text;html=1;strokeColor=none;fillColor=none;align=center;verticalAlign=middle;whiteSpace=wrap;rounded=0;" vertex="1" parent="1">
          <mxGeometry x="10" y="80" width="100" height="30" as="geometry" />
        </mxCell>
        <mxCell id="UCUpz7VWWSVjPhDcPd3a-45" value="" style="shape=hexagon;perimeter=hexagonPerimeter2;whiteSpace=wrap;html=1;fixedSize=1;" vertex="1" parent="1">
          <mxGeometry x="200" y="40" width="120" height="80" as="geometry" />
        </mxCell>
        <mxCell id="UCUpz7VWWSVjPhDcPd3a-46" value="" style="shape=hexagon;perimeter=hexagonPerimeter2;whiteSpace=wrap;html=1;fixedSize=1;" vertex="1" parent="1">
          <mxGeometry x="220" y="40" width="80" height="30" as="geometry" />
        </mxCell>
        <mxCell id="UCUpz7VWWSVjPhDcPd3a-47" value="2" style="text;html=1;strokeColor=none;fillColor=none;align=center;verticalAlign=middle;whiteSpace=wrap;rounded=0;" vertex="1" parent="1">
          <mxGeometry x="230" y="41" width="60" height="30" as="geometry" />
        </mxCell>
        <mxCell id="UCUpz7VWWSVjPhDcPd3a-48" value="Мир" style="text;html=1;strokeColor=none;fillColor=none;align=center;verticalAlign=middle;whiteSpace=wrap;rounded=0;" vertex="1" parent="1">
          <mxGeometry x="210" y="80" width="100" height="30" as="geometry" />
        </mxCell>
        <mxCell id="UCUpz7VWWSVjPhDcPd3a-49" value="" style="shape=hexagon;perimeter=hexagonPerimeter2;whiteSpace=wrap;html=1;fixedSize=1;" vertex="1" parent="1">
          <mxGeometry x="400" y="40" width="120" height="80" as="geometry" />
        </mxCell>
        <mxCell id="UCUpz7VWWSVjPhDcPd3a-50" value="" style="shape=hexagon;perimeter=hexagonPerimeter2;whiteSpace=wrap;html=1;fixedSize=1;" vertex="1" parent="1">
          <mxGeometry x="420" y="40" width="80" height="30" as="geometry" />
        </mxCell>
        <mxCell id="UCUpz7VWWSVjPhDcPd3a-51" value="3" style="text;html=1;strokeColor=none;fillColor=none;align=center;verticalAlign=middle;whiteSpace=wrap;rounded=0;" vertex="1" parent="1">
          <mxGeometry x="430" y="41" width="60" height="30" as="geometry" />
        </mxCell>
        <mxCell id="UCUpz7VWWSVjPhDcPd3a-52" value="Октябрь" style="text;html=1;strokeColor=none;fillColor=none;align=center;verticalAlign=middle;whiteSpace=wrap;rounded=0;" vertex="1" parent="1">
          <mxGeometry x="410" y="80" width="100" height="30" as="geometry" />
        </mxCell>
        <mxCell id="UCUpz7VWWSVjPhDcPd3a-53" value="" style="shape=hexagon;perimeter=hexagonPerimeter2;whiteSpace=wrap;html=1;fixedSize=1;" vertex="1" parent="1">
          <mxGeometry x="600" y="40" width="120" height="80" as="geometry" />
        </mxCell>
        <mxCell id="UCUpz7VWWSVjPhDcPd3a-54" value="" style="shape=hexagon;perimeter=hexagonPerimeter2;whiteSpace=wrap;html=1;fixedSize=1;" vertex="1" parent="1">
          <mxGeometry x="620" y="40" width="80" height="30" as="geometry" />
        </mxCell>
        <mxCell id="UCUpz7VWWSVjPhDcPd3a-55" value="4" style="text;html=1;strokeColor=none;fillColor=none;align=center;verticalAlign=middle;whiteSpace=wrap;rounded=0;" vertex="1" parent="1">
          <mxGeometry x="630" y="41" width="60" height="30" as="geometry" />
        </mxCell>
        <mxCell id="UCUpz7VWWSVjPhDcPd3a-56" value="Маладосць" style="text;html=1;strokeColor=none;fillColor=none;align=center;verticalAlign=middle;whiteSpace=wrap;rounded=0;" vertex="1" parent="1">
          <mxGeometry x="610" y="80" width="100" height="30" as="geometry" />
        </mxCell>
        <mxCell id="UCUpz7VWWSVjPhDcPd3a-57" value="" style="shape=hexagon;perimeter=hexagonPerimeter2;whiteSpace=wrap;html=1;fixedSize=1;" vertex="1" parent="1">
          <mxGeometry x="800" y="40" width="120" height="80" as="geometry" />
        </mxCell>
        <mxCell id="UCUpz7VWWSVjPhDcPd3a-58" value="" style="shape=hexagon;perimeter=hexagonPerimeter2;whiteSpace=wrap;html=1;fixedSize=1;" vertex="1" parent="1">
          <mxGeometry x="820" y="40" width="80" height="30" as="geometry" />
        </mxCell>
        <mxCell id="UCUpz7VWWSVjPhDcPd3a-59" value="5" style="text;html=1;strokeColor=none;fillColor=none;align=center;verticalAlign=middle;whiteSpace=wrap;rounded=0;" vertex="1" parent="1">
          <mxGeometry x="830" y="41" width="60" height="30" as="geometry" />
        </mxCell>
        <mxCell id="UCUpz7VWWSVjPhDcPd3a-60" value="Беларусь" style="text;html=1;strokeColor=none;fillColor=none;align=center;verticalAlign=middle;whiteSpace=wrap;rounded=0;" vertex="1" parent="1">
          <mxGeometry x="810" y="80" width="100" height="30" as="geometry" />
        </mxCell>
        <mxCell id="UCUpz7VWWSVjPhDcPd3a-61" value="" style="shape=hexagon;perimeter=hexagonPerimeter2;whiteSpace=wrap;html=1;fixedSize=1;" vertex="1" parent="1">
          <mxGeometry x="1000" y="40" width="120" height="80" as="geometry" />
        </mxCell>
        <mxCell id="UCUpz7VWWSVjPhDcPd3a-62" value="" style="shape=hexagon;perimeter=hexagonPerimeter2;whiteSpace=wrap;html=1;fixedSize=1;" vertex="1" parent="1">
          <mxGeometry x="1020" y="40" width="80" height="30" as="geometry" />
        </mxCell>
        <mxCell id="UCUpz7VWWSVjPhDcPd3a-63" value="6" style="text;html=1;strokeColor=none;fillColor=none;align=center;verticalAlign=middle;whiteSpace=wrap;rounded=0;" vertex="1" parent="1">
          <mxGeometry x="1030" y="41" width="60" height="30" as="geometry" />
        </mxCell>
        <mxCell id="UCUpz7VWWSVjPhDcPd3a-64" value="Зорка Венера" style="text;html=1;strokeColor=none;fillColor=none;align=center;verticalAlign=middle;whiteSpace=wrap;rounded=0;" vertex="1" parent="1">
          <mxGeometry x="1010" y="80" width="100" height="30" as="geometry" />
        </mxCell>
        <mxCell id="UCUpz7VWWSVjPhDcPd3a-65" value="" style="shape=hexagon;perimeter=hexagonPerimeter2;whiteSpace=wrap;html=1;fixedSize=1;" vertex="1" parent="1">
          <mxGeometry x="1200" y="40" width="120" height="80" as="geometry" />
        </mxCell>
        <mxCell id="UCUpz7VWWSVjPhDcPd3a-66" value="" style="shape=hexagon;perimeter=hexagonPerimeter2;whiteSpace=wrap;html=1;fixedSize=1;" vertex="1" parent="1">
          <mxGeometry x="1220" y="40" width="80" height="30" as="geometry" />
        </mxCell>
        <mxCell id="UCUpz7VWWSVjPhDcPd3a-67" value="7" style="text;html=1;strokeColor=none;fillColor=none;align=center;verticalAlign=middle;whiteSpace=wrap;rounded=0;" vertex="1" parent="1">
          <mxGeometry x="1230" y="41" width="60" height="30" as="geometry" />
        </mxCell>
        <mxCell id="UCUpz7VWWSVjPhDcPd3a-68" value="Родина" style="text;html=1;strokeColor=none;fillColor=none;align=center;verticalAlign=middle;whiteSpace=wrap;rounded=0;" vertex="1" parent="1">
          <mxGeometry x="1210" y="80" width="100" height="30" as="geometry" />
        </mxCell>
        <mxCell id="UCUpz7VWWSVjPhDcPd3a-69" value="" style="shape=hexagon;perimeter=hexagonPerimeter2;whiteSpace=wrap;html=1;fixedSize=1;" vertex="1" parent="1">
          <mxGeometry x="1400" y="40" width="120" height="80" as="geometry" />
        </mxCell>
        <mxCell id="UCUpz7VWWSVjPhDcPd3a-70" value="" style="shape=hexagon;perimeter=hexagonPerimeter2;whiteSpace=wrap;html=1;fixedSize=1;" vertex="1" parent="1">
          <mxGeometry x="1420" y="40" width="80" height="30" as="geometry" />
        </mxCell>
        <mxCell id="UCUpz7VWWSVjPhDcPd3a-71" value="8" style="text;html=1;strokeColor=none;fillColor=none;align=center;verticalAlign=middle;whiteSpace=wrap;rounded=0;" vertex="1" parent="1">
          <mxGeometry x="1430" y="41" width="60" height="30" as="geometry" />
        </mxCell>
        <mxCell id="UCUpz7VWWSVjPhDcPd3a-72" value="Кинотеатр Минск" style="text;html=1;strokeColor=none;fillColor=none;align=center;verticalAlign=middle;whiteSpace=wrap;rounded=0;" vertex="1" parent="1">
          <mxGeometry x="1410" y="80" width="100" height="30" as="geometry" />
        </mxCell>
        <mxCell id="UCUpz7VWWSVjPhDcPd3a-73" value="" style="shape=hexagon;perimeter=hexagonPerimeter2;whiteSpace=wrap;html=1;fixedSize=1;" vertex="1" parent="1">
          <mxGeometry x="1600" y="40" width="120" height="80" as="geometry" />
        </mxCell>
        <mxCell id="UCUpz7VWWSVjPhDcPd3a-74" value="" style="shape=hexagon;perimeter=hexagonPerimeter2;whiteSpace=wrap;html=1;fixedSize=1;" vertex="1" parent="1">
          <mxGeometry x="1620" y="40" width="80" height="30" as="geometry" />
        </mxCell>
        <mxCell id="UCUpz7VWWSVjPhDcPd3a-75" value="9" style="text;html=1;strokeColor=none;fillColor=none;align=center;verticalAlign=middle;whiteSpace=wrap;rounded=0;" vertex="1" parent="1">
          <mxGeometry x="1630" y="41" width="60" height="30" as="geometry" />
        </mxCell>
        <mxCell id="UCUpz7VWWSVjPhDcPd3a-76" value="Спутник" style="text;html=1;strokeColor=none;fillColor=none;align=center;verticalAlign=middle;whiteSpace=wrap;rounded=0;" vertex="1" parent="1">
          <mxGeometry x="1610" y="80" width="100" height="30" as="geometry" />
        </mxCell>
        <mxCell id="UCUpz7VWWSVjPhDcPd3a-77" value="" style="shape=hexagon;perimeter=hexagonPerimeter2;whiteSpace=wrap;html=1;fixedSize=1;" vertex="1" parent="1">
          <mxGeometry x="1800" y="40" width="120" height="80" as="geometry" />
        </mxCell>
        <mxCell id="UCUpz7VWWSVjPhDcPd3a-78" value="" style="shape=hexagon;perimeter=hexagonPerimeter2;whiteSpace=wrap;html=1;fixedSize=1;" vertex="1" parent="1">
          <mxGeometry x="1820" y="40" width="80" height="30" as="geometry" />
        </mxCell>
        <mxCell id="UCUpz7VWWSVjPhDcPd3a-79" value="10" style="text;html=1;strokeColor=none;fillColor=none;align=center;verticalAlign=middle;whiteSpace=wrap;rounded=0;" vertex="1" parent="1">
          <mxGeometry x="1830" y="41" width="60" height="30" as="geometry" />
        </mxCell>
        <mxCell id="UCUpz7VWWSVjPhDcPd3a-80" value="Гастелло" style="text;html=1;strokeColor=none;fillColor=none;align=center;verticalAlign=middle;whiteSpace=wrap;rounded=0;" vertex="1" parent="1">
          <mxGeometry x="1810" y="80" width="100" height="30" as="geometry" />
        </mxCell>
        <mxCell id="UCUpz7VWWSVjPhDcPd3a-81" value="" style="shape=hexagon;perimeter=hexagonPerimeter2;whiteSpace=wrap;html=1;fixedSize=1;" vertex="1" parent="1">
          <mxGeometry x="2000" y="40" width="120" height="80" as="geometry" />
        </mxCell>
        <mxCell id="UCUpz7VWWSVjPhDcPd3a-82" value="" style="shape=hexagon;perimeter=hexagonPerimeter2;whiteSpace=wrap;html=1;fixedSize=1;" vertex="1" parent="1">
          <mxGeometry x="2020" y="40" width="80" height="30" as="geometry" />
        </mxCell>
        <mxCell id="UCUpz7VWWSVjPhDcPd3a-83" value="11" style="text;html=1;strokeColor=none;fillColor=none;align=center;verticalAlign=middle;whiteSpace=wrap;rounded=0;" vertex="1" parent="1">
          <mxGeometry x="2030" y="41" width="60" height="30" as="geometry" />
        </mxCell>
        <mxCell id="UCUpz7VWWSVjPhDcPd3a-84" value="Знамя" style="text;html=1;strokeColor=none;fillColor=none;align=center;verticalAlign=middle;whiteSpace=wrap;rounded=0;" vertex="1" parent="1">
          <mxGeometry x="2010" y="80" width="100" height="30" as="geometry" />
        </mxCell>
        <mxCell id="UCUpz7VWWSVjPhDcPd3a-89" value="" style="endArrow=classic;html=1;rounded=0;exitX=0.5;exitY=1;exitDx=0;exitDy=0;entryX=0.5;entryY=0;entryDx=0;entryDy=0;" edge="1" parent="1" source="42ET7DFAoSXNH3WcUd5_-42" target="UCUpz7VWWSVjPhDcPd3a-3">
          <mxGeometry width="50" height="50" relative="1" as="geometry">
            <mxPoint x="60" y="210" as="sourcePoint" />
            <mxPoint x="110" y="160" as="targetPoint" />
          </mxGeometry>
        </mxCell>
        <mxCell id="UCUpz7VWWSVjPhDcPd3a-90" value="" style="endArrow=classic;html=1;rounded=0;exitX=0.5;exitY=1;exitDx=0;exitDy=0;entryX=0.5;entryY=0;entryDx=0;entryDy=0;" edge="1" parent="1" source="UCUpz7VWWSVjPhDcPd3a-45" target="UCUpz7VWWSVjPhDcPd3a-7">
          <mxGeometry width="50" height="50" relative="1" as="geometry">
            <mxPoint x="260" y="200" as="sourcePoint" />
            <mxPoint x="310" y="150" as="targetPoint" />
          </mxGeometry>
        </mxCell>
        <mxCell id="UCUpz7VWWSVjPhDcPd3a-91" value="" style="endArrow=classic;html=1;rounded=0;exitX=0.5;exitY=1;exitDx=0;exitDy=0;entryX=0.5;entryY=0;entryDx=0;entryDy=0;" edge="1" parent="1" source="UCUpz7VWWSVjPhDcPd3a-49" target="UCUpz7VWWSVjPhDcPd3a-11">
          <mxGeometry width="50" height="50" relative="1" as="geometry">
            <mxPoint x="450" y="210" as="sourcePoint" />
            <mxPoint x="500" y="160" as="targetPoint" />
          </mxGeometry>
        </mxCell>
        <mxCell id="UCUpz7VWWSVjPhDcPd3a-92" value="" style="endArrow=classic;html=1;rounded=0;exitX=0.5;exitY=1;exitDx=0;exitDy=0;entryX=0.5;entryY=0;entryDx=0;entryDy=0;" edge="1" parent="1" source="UCUpz7VWWSVjPhDcPd3a-53" target="UCUpz7VWWSVjPhDcPd3a-15">
          <mxGeometry width="50" height="50" relative="1" as="geometry">
            <mxPoint x="630" y="210" as="sourcePoint" />
            <mxPoint x="680" y="160" as="targetPoint" />
          </mxGeometry>
        </mxCell>
        <mxCell id="UCUpz7VWWSVjPhDcPd3a-93" value="" style="endArrow=classic;html=1;rounded=0;exitX=0.5;exitY=1;exitDx=0;exitDy=0;entryX=0.5;entryY=0;entryDx=0;entryDy=0;" edge="1" parent="1" source="UCUpz7VWWSVjPhDcPd3a-57" target="UCUpz7VWWSVjPhDcPd3a-3">
          <mxGeometry width="50" height="50" relative="1" as="geometry">
            <mxPoint x="840" y="210" as="sourcePoint" />
            <mxPoint x="180" y="180" as="targetPoint" />
          </mxGeometry>
        </mxCell>
        <mxCell id="UCUpz7VWWSVjPhDcPd3a-94" value="" style="endArrow=classic;html=1;rounded=0;exitX=0.5;exitY=1;exitDx=0;exitDy=0;entryX=0.5;entryY=0;entryDx=0;entryDy=0;" edge="1" parent="1" source="UCUpz7VWWSVjPhDcPd3a-61" target="UCUpz7VWWSVjPhDcPd3a-39">
          <mxGeometry width="50" height="50" relative="1" as="geometry">
            <mxPoint x="940" y="210" as="sourcePoint" />
            <mxPoint x="1530" y="160" as="targetPoint" />
          </mxGeometry>
        </mxCell>
        <mxCell id="UCUpz7VWWSVjPhDcPd3a-95" value="" style="endArrow=classic;html=1;rounded=0;exitX=0.5;exitY=1;exitDx=0;exitDy=0;entryX=0.5;entryY=0;entryDx=0;entryDy=0;" edge="1" parent="1" source="UCUpz7VWWSVjPhDcPd3a-65" target="UCUpz7VWWSVjPhDcPd3a-23">
          <mxGeometry width="50" height="50" relative="1" as="geometry">
            <mxPoint x="1120" y="210" as="sourcePoint" />
            <mxPoint x="1170" y="160" as="targetPoint" />
          </mxGeometry>
        </mxCell>
        <mxCell id="UCUpz7VWWSVjPhDcPd3a-96" value="" style="endArrow=classic;html=1;rounded=0;exitX=0.5;exitY=1;exitDx=0;exitDy=0;entryX=0.5;entryY=0;entryDx=0;entryDy=0;" edge="1" parent="1" source="UCUpz7VWWSVjPhDcPd3a-69" target="UCUpz7VWWSVjPhDcPd3a-35">
          <mxGeometry width="50" height="50" relative="1" as="geometry">
            <mxPoint x="1450" y="210" as="sourcePoint" />
            <mxPoint x="1500" y="160" as="targetPoint" />
          </mxGeometry>
        </mxCell>
        <mxCell id="UCUpz7VWWSVjPhDcPd3a-97" value="" style="endArrow=classic;html=1;rounded=0;exitX=0.5;exitY=1;exitDx=0;exitDy=0;entryX=0.5;entryY=0;entryDx=0;entryDy=0;" edge="1" parent="1" source="UCUpz7VWWSVjPhDcPd3a-73" target="UCUpz7VWWSVjPhDcPd3a-31">
          <mxGeometry width="50" height="50" relative="1" as="geometry">
            <mxPoint x="1620" y="220" as="sourcePoint" />
            <mxPoint x="1670" y="170" as="targetPoint" />
          </mxGeometry>
        </mxCell>
        <mxCell id="UCUpz7VWWSVjPhDcPd3a-98" value="" style="endArrow=classic;html=1;rounded=0;exitX=0.5;exitY=1;exitDx=0;exitDy=0;entryX=0.5;entryY=0;entryDx=0;entryDy=0;" edge="1" parent="1" source="UCUpz7VWWSVjPhDcPd3a-77" target="UCUpz7VWWSVjPhDcPd3a-19">
          <mxGeometry width="50" height="50" relative="1" as="geometry">
            <mxPoint x="1890" y="210" as="sourcePoint" />
            <mxPoint x="940" y="170" as="targetPoint" />
          </mxGeometry>
        </mxCell>
        <mxCell id="UCUpz7VWWSVjPhDcPd3a-99" value="" style="endArrow=classic;html=1;rounded=0;exitX=0.5;exitY=1;exitDx=0;exitDy=0;entryX=0.5;entryY=0;entryDx=0;entryDy=0;" edge="1" parent="1" source="UCUpz7VWWSVjPhDcPd3a-81" target="UCUpz7VWWSVjPhDcPd3a-27">
          <mxGeometry width="50" height="50" relative="1" as="geometry">
            <mxPoint x="1950" y="200" as="sourcePoint" />
            <mxPoint x="1450" y="200" as="targetPoint" />
          </mxGeometry>
        </mxCell>
      </root>
    </mxGraphModel>
  </diagram>
  <diagram id="G1G30LupDCzLdaLzUkXw" name="Owner_Of">
    <mxGraphModel dx="3050" dy="2695" grid="1" gridSize="10" guides="1" tooltips="1" connect="1" arrows="1" fold="1" page="1" pageScale="1" pageWidth="850" pageHeight="1100" math="0" shadow="0">
      <root>
        <mxCell id="0" />
        <mxCell id="1" parent="0" />
        <mxCell id="Iq7Ngc-yNcRaKbJX_L3u-1" value="" style="shape=hexagon;perimeter=hexagonPerimeter2;whiteSpace=wrap;html=1;fixedSize=1;" vertex="1" parent="1">
          <mxGeometry x="20" y="320" width="120" height="80" as="geometry" />
        </mxCell>
        <mxCell id="Iq7Ngc-yNcRaKbJX_L3u-2" value="" style="shape=hexagon;perimeter=hexagonPerimeter2;whiteSpace=wrap;html=1;fixedSize=1;" vertex="1" parent="1">
          <mxGeometry x="40" y="320" width="80" height="30" as="geometry" />
        </mxCell>
        <mxCell id="Iq7Ngc-yNcRaKbJX_L3u-3" value="1" style="text;html=1;strokeColor=none;fillColor=none;align=center;verticalAlign=middle;whiteSpace=wrap;rounded=0;" vertex="1" parent="1">
          <mxGeometry x="50" y="321" width="60" height="30" as="geometry" />
        </mxCell>
        <mxCell id="Iq7Ngc-yNcRaKbJX_L3u-4" value="Skyline" style="text;html=1;strokeColor=none;fillColor=none;align=center;verticalAlign=middle;whiteSpace=wrap;rounded=0;" vertex="1" parent="1">
          <mxGeometry x="30" y="360" width="100" height="30" as="geometry" />
        </mxCell>
        <mxCell id="Iq7Ngc-yNcRaKbJX_L3u-5" value="" style="shape=hexagon;perimeter=hexagonPerimeter2;whiteSpace=wrap;html=1;fixedSize=1;" vertex="1" parent="1">
          <mxGeometry x="220" y="320" width="120" height="80" as="geometry" />
        </mxCell>
        <mxCell id="Iq7Ngc-yNcRaKbJX_L3u-6" value="" style="shape=hexagon;perimeter=hexagonPerimeter2;whiteSpace=wrap;html=1;fixedSize=1;" vertex="1" parent="1">
          <mxGeometry x="240" y="320" width="80" height="30" as="geometry" />
        </mxCell>
        <mxCell id="Iq7Ngc-yNcRaKbJX_L3u-7" value="2" style="text;html=1;strokeColor=none;fillColor=none;align=center;verticalAlign=middle;whiteSpace=wrap;rounded=0;" vertex="1" parent="1">
          <mxGeometry x="250" y="321" width="60" height="30" as="geometry" />
        </mxCell>
        <mxCell id="Iq7Ngc-yNcRaKbJX_L3u-8" value="Мир" style="text;html=1;strokeColor=none;fillColor=none;align=center;verticalAlign=middle;whiteSpace=wrap;rounded=0;" vertex="1" parent="1">
          <mxGeometry x="230" y="360" width="100" height="30" as="geometry" />
        </mxCell>
        <mxCell id="Iq7Ngc-yNcRaKbJX_L3u-9" value="" style="shape=hexagon;perimeter=hexagonPerimeter2;whiteSpace=wrap;html=1;fixedSize=1;" vertex="1" parent="1">
          <mxGeometry x="420" y="320" width="120" height="80" as="geometry" />
        </mxCell>
        <mxCell id="Iq7Ngc-yNcRaKbJX_L3u-10" value="" style="shape=hexagon;perimeter=hexagonPerimeter2;whiteSpace=wrap;html=1;fixedSize=1;" vertex="1" parent="1">
          <mxGeometry x="440" y="320" width="80" height="30" as="geometry" />
        </mxCell>
        <mxCell id="Iq7Ngc-yNcRaKbJX_L3u-11" value="3" style="text;html=1;strokeColor=none;fillColor=none;align=center;verticalAlign=middle;whiteSpace=wrap;rounded=0;" vertex="1" parent="1">
          <mxGeometry x="450" y="321" width="60" height="30" as="geometry" />
        </mxCell>
        <mxCell id="Iq7Ngc-yNcRaKbJX_L3u-12" value="Октябрь" style="text;html=1;strokeColor=none;fillColor=none;align=center;verticalAlign=middle;whiteSpace=wrap;rounded=0;" vertex="1" parent="1">
          <mxGeometry x="430" y="360" width="100" height="30" as="geometry" />
        </mxCell>
        <mxCell id="Iq7Ngc-yNcRaKbJX_L3u-13" value="" style="shape=hexagon;perimeter=hexagonPerimeter2;whiteSpace=wrap;html=1;fixedSize=1;" vertex="1" parent="1">
          <mxGeometry x="620" y="320" width="120" height="80" as="geometry" />
        </mxCell>
        <mxCell id="Iq7Ngc-yNcRaKbJX_L3u-14" value="" style="shape=hexagon;perimeter=hexagonPerimeter2;whiteSpace=wrap;html=1;fixedSize=1;" vertex="1" parent="1">
          <mxGeometry x="640" y="320" width="80" height="30" as="geometry" />
        </mxCell>
        <mxCell id="Iq7Ngc-yNcRaKbJX_L3u-15" value="4" style="text;html=1;strokeColor=none;fillColor=none;align=center;verticalAlign=middle;whiteSpace=wrap;rounded=0;" vertex="1" parent="1">
          <mxGeometry x="650" y="321" width="60" height="30" as="geometry" />
        </mxCell>
        <mxCell id="Iq7Ngc-yNcRaKbJX_L3u-16" value="Маладосць" style="text;html=1;strokeColor=none;fillColor=none;align=center;verticalAlign=middle;whiteSpace=wrap;rounded=0;" vertex="1" parent="1">
          <mxGeometry x="630" y="360" width="100" height="30" as="geometry" />
        </mxCell>
        <mxCell id="Iq7Ngc-yNcRaKbJX_L3u-17" value="" style="shape=hexagon;perimeter=hexagonPerimeter2;whiteSpace=wrap;html=1;fixedSize=1;" vertex="1" parent="1">
          <mxGeometry x="820" y="320" width="120" height="80" as="geometry" />
        </mxCell>
        <mxCell id="Iq7Ngc-yNcRaKbJX_L3u-18" value="" style="shape=hexagon;perimeter=hexagonPerimeter2;whiteSpace=wrap;html=1;fixedSize=1;" vertex="1" parent="1">
          <mxGeometry x="840" y="320" width="80" height="30" as="geometry" />
        </mxCell>
        <mxCell id="Iq7Ngc-yNcRaKbJX_L3u-19" value="5" style="text;html=1;strokeColor=none;fillColor=none;align=center;verticalAlign=middle;whiteSpace=wrap;rounded=0;" vertex="1" parent="1">
          <mxGeometry x="850" y="321" width="60" height="30" as="geometry" />
        </mxCell>
        <mxCell id="Iq7Ngc-yNcRaKbJX_L3u-20" value="Беларусь" style="text;html=1;strokeColor=none;fillColor=none;align=center;verticalAlign=middle;whiteSpace=wrap;rounded=0;" vertex="1" parent="1">
          <mxGeometry x="830" y="360" width="100" height="30" as="geometry" />
        </mxCell>
        <mxCell id="Iq7Ngc-yNcRaKbJX_L3u-21" value="" style="shape=hexagon;perimeter=hexagonPerimeter2;whiteSpace=wrap;html=1;fixedSize=1;" vertex="1" parent="1">
          <mxGeometry x="1020" y="320" width="120" height="80" as="geometry" />
        </mxCell>
        <mxCell id="Iq7Ngc-yNcRaKbJX_L3u-22" value="" style="shape=hexagon;perimeter=hexagonPerimeter2;whiteSpace=wrap;html=1;fixedSize=1;" vertex="1" parent="1">
          <mxGeometry x="1040" y="320" width="80" height="30" as="geometry" />
        </mxCell>
        <mxCell id="Iq7Ngc-yNcRaKbJX_L3u-23" value="6" style="text;html=1;strokeColor=none;fillColor=none;align=center;verticalAlign=middle;whiteSpace=wrap;rounded=0;" vertex="1" parent="1">
          <mxGeometry x="1050" y="321" width="60" height="30" as="geometry" />
        </mxCell>
        <mxCell id="Iq7Ngc-yNcRaKbJX_L3u-24" value="Зорка Венера" style="text;html=1;strokeColor=none;fillColor=none;align=center;verticalAlign=middle;whiteSpace=wrap;rounded=0;" vertex="1" parent="1">
          <mxGeometry x="1030" y="360" width="100" height="30" as="geometry" />
        </mxCell>
        <mxCell id="Iq7Ngc-yNcRaKbJX_L3u-25" value="" style="shape=hexagon;perimeter=hexagonPerimeter2;whiteSpace=wrap;html=1;fixedSize=1;" vertex="1" parent="1">
          <mxGeometry x="1220" y="320" width="120" height="80" as="geometry" />
        </mxCell>
        <mxCell id="Iq7Ngc-yNcRaKbJX_L3u-26" value="" style="shape=hexagon;perimeter=hexagonPerimeter2;whiteSpace=wrap;html=1;fixedSize=1;" vertex="1" parent="1">
          <mxGeometry x="1240" y="320" width="80" height="30" as="geometry" />
        </mxCell>
        <mxCell id="Iq7Ngc-yNcRaKbJX_L3u-27" value="7" style="text;html=1;strokeColor=none;fillColor=none;align=center;verticalAlign=middle;whiteSpace=wrap;rounded=0;" vertex="1" parent="1">
          <mxGeometry x="1250" y="321" width="60" height="30" as="geometry" />
        </mxCell>
        <mxCell id="Iq7Ngc-yNcRaKbJX_L3u-28" value="Родина" style="text;html=1;strokeColor=none;fillColor=none;align=center;verticalAlign=middle;whiteSpace=wrap;rounded=0;" vertex="1" parent="1">
          <mxGeometry x="1230" y="360" width="100" height="30" as="geometry" />
        </mxCell>
        <mxCell id="Iq7Ngc-yNcRaKbJX_L3u-29" value="" style="shape=hexagon;perimeter=hexagonPerimeter2;whiteSpace=wrap;html=1;fixedSize=1;" vertex="1" parent="1">
          <mxGeometry x="1420" y="320" width="120" height="80" as="geometry" />
        </mxCell>
        <mxCell id="Iq7Ngc-yNcRaKbJX_L3u-30" value="" style="shape=hexagon;perimeter=hexagonPerimeter2;whiteSpace=wrap;html=1;fixedSize=1;" vertex="1" parent="1">
          <mxGeometry x="1440" y="320" width="80" height="30" as="geometry" />
        </mxCell>
        <mxCell id="Iq7Ngc-yNcRaKbJX_L3u-31" value="8" style="text;html=1;strokeColor=none;fillColor=none;align=center;verticalAlign=middle;whiteSpace=wrap;rounded=0;" vertex="1" parent="1">
          <mxGeometry x="1450" y="321" width="60" height="30" as="geometry" />
        </mxCell>
        <mxCell id="Iq7Ngc-yNcRaKbJX_L3u-32" value="Кинотеатр Минск" style="text;html=1;strokeColor=none;fillColor=none;align=center;verticalAlign=middle;whiteSpace=wrap;rounded=0;" vertex="1" parent="1">
          <mxGeometry x="1430" y="360" width="100" height="30" as="geometry" />
        </mxCell>
        <mxCell id="Iq7Ngc-yNcRaKbJX_L3u-33" value="" style="shape=hexagon;perimeter=hexagonPerimeter2;whiteSpace=wrap;html=1;fixedSize=1;" vertex="1" parent="1">
          <mxGeometry x="1620" y="320" width="120" height="80" as="geometry" />
        </mxCell>
        <mxCell id="Iq7Ngc-yNcRaKbJX_L3u-34" value="" style="shape=hexagon;perimeter=hexagonPerimeter2;whiteSpace=wrap;html=1;fixedSize=1;" vertex="1" parent="1">
          <mxGeometry x="1640" y="320" width="80" height="30" as="geometry" />
        </mxCell>
        <mxCell id="Iq7Ngc-yNcRaKbJX_L3u-35" value="9" style="text;html=1;strokeColor=none;fillColor=none;align=center;verticalAlign=middle;whiteSpace=wrap;rounded=0;" vertex="1" parent="1">
          <mxGeometry x="1650" y="321" width="60" height="30" as="geometry" />
        </mxCell>
        <mxCell id="Iq7Ngc-yNcRaKbJX_L3u-36" value="Спутник" style="text;html=1;strokeColor=none;fillColor=none;align=center;verticalAlign=middle;whiteSpace=wrap;rounded=0;" vertex="1" parent="1">
          <mxGeometry x="1630" y="360" width="100" height="30" as="geometry" />
        </mxCell>
        <mxCell id="Iq7Ngc-yNcRaKbJX_L3u-37" value="" style="shape=hexagon;perimeter=hexagonPerimeter2;whiteSpace=wrap;html=1;fixedSize=1;" vertex="1" parent="1">
          <mxGeometry x="1820" y="320" width="120" height="80" as="geometry" />
        </mxCell>
        <mxCell id="Iq7Ngc-yNcRaKbJX_L3u-38" value="" style="shape=hexagon;perimeter=hexagonPerimeter2;whiteSpace=wrap;html=1;fixedSize=1;" vertex="1" parent="1">
          <mxGeometry x="1840" y="320" width="80" height="30" as="geometry" />
        </mxCell>
        <mxCell id="Iq7Ngc-yNcRaKbJX_L3u-39" value="10" style="text;html=1;strokeColor=none;fillColor=none;align=center;verticalAlign=middle;whiteSpace=wrap;rounded=0;" vertex="1" parent="1">
          <mxGeometry x="1850" y="321" width="60" height="30" as="geometry" />
        </mxCell>
        <mxCell id="Iq7Ngc-yNcRaKbJX_L3u-40" value="Гастелло" style="text;html=1;strokeColor=none;fillColor=none;align=center;verticalAlign=middle;whiteSpace=wrap;rounded=0;" vertex="1" parent="1">
          <mxGeometry x="1830" y="360" width="100" height="30" as="geometry" />
        </mxCell>
        <mxCell id="Iq7Ngc-yNcRaKbJX_L3u-41" value="" style="shape=hexagon;perimeter=hexagonPerimeter2;whiteSpace=wrap;html=1;fixedSize=1;" vertex="1" parent="1">
          <mxGeometry x="2020" y="320" width="120" height="80" as="geometry" />
        </mxCell>
        <mxCell id="Iq7Ngc-yNcRaKbJX_L3u-42" value="" style="shape=hexagon;perimeter=hexagonPerimeter2;whiteSpace=wrap;html=1;fixedSize=1;" vertex="1" parent="1">
          <mxGeometry x="2040" y="320" width="80" height="30" as="geometry" />
        </mxCell>
        <mxCell id="Iq7Ngc-yNcRaKbJX_L3u-43" value="11" style="text;html=1;strokeColor=none;fillColor=none;align=center;verticalAlign=middle;whiteSpace=wrap;rounded=0;" vertex="1" parent="1">
          <mxGeometry x="2050" y="321" width="60" height="30" as="geometry" />
        </mxCell>
        <mxCell id="Iq7Ngc-yNcRaKbJX_L3u-44" value="Знамя" style="text;html=1;strokeColor=none;fillColor=none;align=center;verticalAlign=middle;whiteSpace=wrap;rounded=0;" vertex="1" parent="1">
          <mxGeometry x="2030" y="360" width="100" height="30" as="geometry" />
        </mxCell>
        <mxCell id="AA5wqpNzj-hvEJcued7X-1" value="" style="ellipse;whiteSpace=wrap;html=1;aspect=fixed;" vertex="1" parent="1">
          <mxGeometry x="40" y="40" width="80" height="80" as="geometry" />
        </mxCell>
        <mxCell id="AA5wqpNzj-hvEJcued7X-2" value="" style="ellipse;whiteSpace=wrap;html=1;aspect=fixed;" vertex="1" parent="1">
          <mxGeometry x="60" y="40" width="40" height="40" as="geometry" />
        </mxCell>
        <mxCell id="AA5wqpNzj-hvEJcued7X-3" value="1" style="text;html=1;strokeColor=none;fillColor=none;align=center;verticalAlign=middle;whiteSpace=wrap;rounded=0;" vertex="1" parent="1">
          <mxGeometry x="60" y="40" width="40" height="40" as="geometry" />
        </mxCell>
        <mxCell id="AA5wqpNzj-hvEJcued7X-4" value="Никита" style="text;html=1;strokeColor=none;fillColor=none;align=center;verticalAlign=middle;whiteSpace=wrap;rounded=0;" vertex="1" parent="1">
          <mxGeometry x="50" y="80" width="60" height="30" as="geometry" />
        </mxCell>
        <mxCell id="AA5wqpNzj-hvEJcued7X-5" value="" style="ellipse;whiteSpace=wrap;html=1;aspect=fixed;" vertex="1" parent="1">
          <mxGeometry x="240" y="40" width="80" height="80" as="geometry" />
        </mxCell>
        <mxCell id="AA5wqpNzj-hvEJcued7X-6" value="" style="ellipse;whiteSpace=wrap;html=1;aspect=fixed;" vertex="1" parent="1">
          <mxGeometry x="260" y="40" width="40" height="40" as="geometry" />
        </mxCell>
        <mxCell id="AA5wqpNzj-hvEJcued7X-7" value="2" style="text;html=1;strokeColor=none;fillColor=none;align=center;verticalAlign=middle;whiteSpace=wrap;rounded=0;" vertex="1" parent="1">
          <mxGeometry x="260" y="40" width="40" height="40" as="geometry" />
        </mxCell>
        <mxCell id="AA5wqpNzj-hvEJcued7X-8" value="Антон" style="text;html=1;strokeColor=none;fillColor=none;align=center;verticalAlign=middle;whiteSpace=wrap;rounded=0;" vertex="1" parent="1">
          <mxGeometry x="250" y="80" width="60" height="30" as="geometry" />
        </mxCell>
        <mxCell id="AA5wqpNzj-hvEJcued7X-9" value="" style="ellipse;whiteSpace=wrap;html=1;aspect=fixed;" vertex="1" parent="1">
          <mxGeometry x="440" y="40" width="80" height="80" as="geometry" />
        </mxCell>
        <mxCell id="AA5wqpNzj-hvEJcued7X-10" value="" style="ellipse;whiteSpace=wrap;html=1;aspect=fixed;" vertex="1" parent="1">
          <mxGeometry x="460" y="40" width="40" height="40" as="geometry" />
        </mxCell>
        <mxCell id="AA5wqpNzj-hvEJcued7X-11" value="3" style="text;html=1;strokeColor=none;fillColor=none;align=center;verticalAlign=middle;whiteSpace=wrap;rounded=0;" vertex="1" parent="1">
          <mxGeometry x="460" y="40" width="40" height="40" as="geometry" />
        </mxCell>
        <mxCell id="AA5wqpNzj-hvEJcued7X-12" value="Даниил" style="text;html=1;strokeColor=none;fillColor=none;align=center;verticalAlign=middle;whiteSpace=wrap;rounded=0;" vertex="1" parent="1">
          <mxGeometry x="450" y="80" width="60" height="30" as="geometry" />
        </mxCell>
        <mxCell id="AA5wqpNzj-hvEJcued7X-13" value="" style="ellipse;whiteSpace=wrap;html=1;aspect=fixed;" vertex="1" parent="1">
          <mxGeometry x="640" y="40" width="80" height="80" as="geometry" />
        </mxCell>
        <mxCell id="AA5wqpNzj-hvEJcued7X-14" value="" style="ellipse;whiteSpace=wrap;html=1;aspect=fixed;" vertex="1" parent="1">
          <mxGeometry x="660" y="40" width="40" height="40" as="geometry" />
        </mxCell>
        <mxCell id="AA5wqpNzj-hvEJcued7X-15" value="4" style="text;html=1;strokeColor=none;fillColor=none;align=center;verticalAlign=middle;whiteSpace=wrap;rounded=0;" vertex="1" parent="1">
          <mxGeometry x="660" y="40" width="40" height="40" as="geometry" />
        </mxCell>
        <mxCell id="AA5wqpNzj-hvEJcued7X-16" value="Олег" style="text;html=1;strokeColor=none;fillColor=none;align=center;verticalAlign=middle;whiteSpace=wrap;rounded=0;" vertex="1" parent="1">
          <mxGeometry x="650" y="80" width="60" height="30" as="geometry" />
        </mxCell>
        <mxCell id="AA5wqpNzj-hvEJcued7X-17" value="" style="ellipse;whiteSpace=wrap;html=1;aspect=fixed;" vertex="1" parent="1">
          <mxGeometry x="840" y="40" width="80" height="80" as="geometry" />
        </mxCell>
        <mxCell id="AA5wqpNzj-hvEJcued7X-18" value="" style="ellipse;whiteSpace=wrap;html=1;aspect=fixed;" vertex="1" parent="1">
          <mxGeometry x="860" y="40" width="40" height="40" as="geometry" />
        </mxCell>
        <mxCell id="AA5wqpNzj-hvEJcued7X-19" value="5" style="text;html=1;strokeColor=none;fillColor=none;align=center;verticalAlign=middle;whiteSpace=wrap;rounded=0;" vertex="1" parent="1">
          <mxGeometry x="860" y="40" width="40" height="40" as="geometry" />
        </mxCell>
        <mxCell id="AA5wqpNzj-hvEJcued7X-20" value="Машука" style="text;html=1;strokeColor=none;fillColor=none;align=center;verticalAlign=middle;whiteSpace=wrap;rounded=0;" vertex="1" parent="1">
          <mxGeometry x="850" y="80" width="60" height="30" as="geometry" />
        </mxCell>
        <mxCell id="AA5wqpNzj-hvEJcued7X-21" value="" style="ellipse;whiteSpace=wrap;html=1;aspect=fixed;" vertex="1" parent="1">
          <mxGeometry x="1040" y="40" width="80" height="80" as="geometry" />
        </mxCell>
        <mxCell id="AA5wqpNzj-hvEJcued7X-22" value="" style="ellipse;whiteSpace=wrap;html=1;aspect=fixed;" vertex="1" parent="1">
          <mxGeometry x="1060" y="40" width="40" height="40" as="geometry" />
        </mxCell>
        <mxCell id="AA5wqpNzj-hvEJcued7X-23" value="6" style="text;html=1;strokeColor=none;fillColor=none;align=center;verticalAlign=middle;whiteSpace=wrap;rounded=0;" vertex="1" parent="1">
          <mxGeometry x="1060" y="40" width="40" height="40" as="geometry" />
        </mxCell>
        <mxCell id="AA5wqpNzj-hvEJcued7X-24" value="Ведьма" style="text;html=1;strokeColor=none;fillColor=none;align=center;verticalAlign=middle;whiteSpace=wrap;rounded=0;" vertex="1" parent="1">
          <mxGeometry x="1050" y="80" width="60" height="30" as="geometry" />
        </mxCell>
        <mxCell id="AA5wqpNzj-hvEJcued7X-25" value="" style="ellipse;whiteSpace=wrap;html=1;aspect=fixed;" vertex="1" parent="1">
          <mxGeometry x="1240" y="40" width="80" height="80" as="geometry" />
        </mxCell>
        <mxCell id="AA5wqpNzj-hvEJcued7X-26" value="" style="ellipse;whiteSpace=wrap;html=1;aspect=fixed;" vertex="1" parent="1">
          <mxGeometry x="1260" y="40" width="40" height="40" as="geometry" />
        </mxCell>
        <mxCell id="AA5wqpNzj-hvEJcued7X-27" value="7" style="text;html=1;strokeColor=none;fillColor=none;align=center;verticalAlign=middle;whiteSpace=wrap;rounded=0;" vertex="1" parent="1">
          <mxGeometry x="1260" y="40" width="40" height="40" as="geometry" />
        </mxCell>
        <mxCell id="AA5wqpNzj-hvEJcued7X-28" value="Пётр" style="text;html=1;strokeColor=none;fillColor=none;align=center;verticalAlign=middle;whiteSpace=wrap;rounded=0;" vertex="1" parent="1">
          <mxGeometry x="1250" y="80" width="60" height="30" as="geometry" />
        </mxCell>
        <mxCell id="AA5wqpNzj-hvEJcued7X-29" value="" style="ellipse;whiteSpace=wrap;html=1;aspect=fixed;" vertex="1" parent="1">
          <mxGeometry x="1440" y="40" width="80" height="80" as="geometry" />
        </mxCell>
        <mxCell id="AA5wqpNzj-hvEJcued7X-30" value="" style="ellipse;whiteSpace=wrap;html=1;aspect=fixed;" vertex="1" parent="1">
          <mxGeometry x="1460" y="40" width="40" height="40" as="geometry" />
        </mxCell>
        <mxCell id="AA5wqpNzj-hvEJcued7X-31" value="8" style="text;html=1;strokeColor=none;fillColor=none;align=center;verticalAlign=middle;whiteSpace=wrap;rounded=0;" vertex="1" parent="1">
          <mxGeometry x="1460" y="40" width="40" height="40" as="geometry" />
        </mxCell>
        <mxCell id="AA5wqpNzj-hvEJcued7X-32" value="Саня" style="text;html=1;strokeColor=none;fillColor=none;align=center;verticalAlign=middle;whiteSpace=wrap;rounded=0;" vertex="1" parent="1">
          <mxGeometry x="1450" y="80" width="60" height="30" as="geometry" />
        </mxCell>
        <mxCell id="AA5wqpNzj-hvEJcued7X-33" value="" style="ellipse;whiteSpace=wrap;html=1;aspect=fixed;" vertex="1" parent="1">
          <mxGeometry x="1640" y="40" width="80" height="80" as="geometry" />
        </mxCell>
        <mxCell id="AA5wqpNzj-hvEJcued7X-34" value="" style="ellipse;whiteSpace=wrap;html=1;aspect=fixed;" vertex="1" parent="1">
          <mxGeometry x="1660" y="40" width="40" height="40" as="geometry" />
        </mxCell>
        <mxCell id="AA5wqpNzj-hvEJcued7X-35" value="9" style="text;html=1;strokeColor=none;fillColor=none;align=center;verticalAlign=middle;whiteSpace=wrap;rounded=0;" vertex="1" parent="1">
          <mxGeometry x="1660" y="40" width="40" height="40" as="geometry" />
        </mxCell>
        <mxCell id="AA5wqpNzj-hvEJcued7X-36" value="Альберт" style="text;html=1;strokeColor=none;fillColor=none;align=center;verticalAlign=middle;whiteSpace=wrap;rounded=0;" vertex="1" parent="1">
          <mxGeometry x="1650" y="80" width="60" height="30" as="geometry" />
        </mxCell>
        <mxCell id="AA5wqpNzj-hvEJcued7X-37" value="" style="ellipse;whiteSpace=wrap;html=1;aspect=fixed;" vertex="1" parent="1">
          <mxGeometry x="1840" y="40" width="80" height="80" as="geometry" />
        </mxCell>
        <mxCell id="AA5wqpNzj-hvEJcued7X-38" value="" style="ellipse;whiteSpace=wrap;html=1;aspect=fixed;" vertex="1" parent="1">
          <mxGeometry x="1860" y="40" width="40" height="40" as="geometry" />
        </mxCell>
        <mxCell id="AA5wqpNzj-hvEJcued7X-39" value="10" style="text;html=1;strokeColor=none;fillColor=none;align=center;verticalAlign=middle;whiteSpace=wrap;rounded=0;" vertex="1" parent="1">
          <mxGeometry x="1860" y="40" width="40" height="40" as="geometry" />
        </mxCell>
        <mxCell id="AA5wqpNzj-hvEJcued7X-40" value="Падре" style="text;html=1;strokeColor=none;fillColor=none;align=center;verticalAlign=middle;whiteSpace=wrap;rounded=0;" vertex="1" parent="1">
          <mxGeometry x="1850" y="80" width="60" height="30" as="geometry" />
        </mxCell>
        <mxCell id="nbFku4bd-c8YuzLNbCXt-1" value="" style="endArrow=classic;html=1;rounded=0;exitX=0.5;exitY=1;exitDx=0;exitDy=0;entryX=0.5;entryY=0;entryDx=0;entryDy=0;" edge="1" parent="1" source="AA5wqpNzj-hvEJcued7X-1" target="Iq7Ngc-yNcRaKbJX_L3u-2">
          <mxGeometry width="50" height="50" relative="1" as="geometry">
            <mxPoint x="120" y="210" as="sourcePoint" />
            <mxPoint x="170" y="160" as="targetPoint" />
          </mxGeometry>
        </mxCell>
        <mxCell id="nbFku4bd-c8YuzLNbCXt-2" value="" style="endArrow=classic;html=1;rounded=0;exitX=0.5;exitY=1;exitDx=0;exitDy=0;entryX=0.5;entryY=0;entryDx=0;entryDy=0;" edge="1" parent="1" source="AA5wqpNzj-hvEJcued7X-5" target="Iq7Ngc-yNcRaKbJX_L3u-6">
          <mxGeometry width="50" height="50" relative="1" as="geometry">
            <mxPoint x="280" y="160" as="sourcePoint" />
            <mxPoint x="280" y="240" as="targetPoint" />
            <Array as="points">
              <mxPoint x="280" y="200" />
            </Array>
          </mxGeometry>
        </mxCell>
        <mxCell id="nbFku4bd-c8YuzLNbCXt-3" value="" style="endArrow=classic;html=1;rounded=0;exitX=0.5;exitY=1;exitDx=0;exitDy=0;entryX=0.5;entryY=0;entryDx=0;entryDy=0;" edge="1" parent="1" source="AA5wqpNzj-hvEJcued7X-9" target="Iq7Ngc-yNcRaKbJX_L3u-11">
          <mxGeometry width="50" height="50" relative="1" as="geometry">
            <mxPoint x="480" y="160" as="sourcePoint" />
            <mxPoint x="480" y="280" as="targetPoint" />
          </mxGeometry>
        </mxCell>
        <mxCell id="nbFku4bd-c8YuzLNbCXt-4" value="" style="endArrow=classic;html=1;rounded=0;exitX=0.5;exitY=1;exitDx=0;exitDy=0;entryX=0.625;entryY=0;entryDx=0;entryDy=0;" edge="1" parent="1" source="AA5wqpNzj-hvEJcued7X-13" target="Iq7Ngc-yNcRaKbJX_L3u-10">
          <mxGeometry width="50" height="50" relative="1" as="geometry">
            <mxPoint x="670" y="150" as="sourcePoint" />
            <mxPoint x="480" y="230" as="targetPoint" />
          </mxGeometry>
        </mxCell>
        <mxCell id="nbFku4bd-c8YuzLNbCXt-6" value="" style="endArrow=classic;html=1;rounded=0;exitX=0.5;exitY=1;exitDx=0;exitDy=0;entryX=0.5;entryY=0;entryDx=0;entryDy=0;" edge="1" parent="1" source="AA5wqpNzj-hvEJcued7X-17" target="Iq7Ngc-yNcRaKbJX_L3u-42">
          <mxGeometry width="50" height="50" relative="1" as="geometry">
            <mxPoint x="960" y="220" as="sourcePoint" />
            <mxPoint x="1450" y="150" as="targetPoint" />
          </mxGeometry>
        </mxCell>
        <mxCell id="nbFku4bd-c8YuzLNbCXt-7" value="" style="endArrow=classic;html=1;rounded=0;exitX=0.5;exitY=1;exitDx=0;exitDy=0;entryX=0.5;entryY=0;entryDx=0;entryDy=0;" edge="1" parent="1" source="AA5wqpNzj-hvEJcued7X-21" target="Iq7Ngc-yNcRaKbJX_L3u-18">
          <mxGeometry width="50" height="50" relative="1" as="geometry">
            <mxPoint x="1000" y="230" as="sourcePoint" />
            <mxPoint x="1050" y="180" as="targetPoint" />
          </mxGeometry>
        </mxCell>
        <mxCell id="nbFku4bd-c8YuzLNbCXt-8" value="" style="endArrow=classic;html=1;rounded=0;entryX=0.5;entryY=0;entryDx=0;entryDy=0;" edge="1" parent="1" target="Iq7Ngc-yNcRaKbJX_L3u-14">
          <mxGeometry width="50" height="50" relative="1" as="geometry">
            <mxPoint x="1080" y="120" as="sourcePoint" />
            <mxPoint x="750" y="290" as="targetPoint" />
          </mxGeometry>
        </mxCell>
        <mxCell id="nbFku4bd-c8YuzLNbCXt-10" value="" style="endArrow=classic;html=1;rounded=0;exitX=0.5;exitY=1;exitDx=0;exitDy=0;entryX=0.5;entryY=0;entryDx=0;entryDy=0;" edge="1" parent="1" source="AA5wqpNzj-hvEJcued7X-25" target="Iq7Ngc-yNcRaKbJX_L3u-22">
          <mxGeometry width="50" height="50" relative="1" as="geometry">
            <mxPoint x="1160" y="230" as="sourcePoint" />
            <mxPoint x="1210" y="180" as="targetPoint" />
          </mxGeometry>
        </mxCell>
        <mxCell id="nbFku4bd-c8YuzLNbCXt-11" value="" style="endArrow=classic;html=1;rounded=0;exitX=0.5;exitY=1;exitDx=0;exitDy=0;entryX=0.5;entryY=0;entryDx=0;entryDy=0;" edge="1" parent="1" source="AA5wqpNzj-hvEJcued7X-25" target="Iq7Ngc-yNcRaKbJX_L3u-27">
          <mxGeometry width="50" height="50" relative="1" as="geometry">
            <mxPoint x="1280" y="130" as="sourcePoint" />
            <mxPoint x="1360" y="160" as="targetPoint" />
          </mxGeometry>
        </mxCell>
        <mxCell id="nbFku4bd-c8YuzLNbCXt-12" value="" style="endArrow=classic;html=1;rounded=0;exitX=0.5;exitY=1;exitDx=0;exitDy=0;entryX=0.5;entryY=0;entryDx=0;entryDy=0;" edge="1" parent="1" source="AA5wqpNzj-hvEJcued7X-29" target="Iq7Ngc-yNcRaKbJX_L3u-31">
          <mxGeometry width="50" height="50" relative="1" as="geometry">
            <mxPoint x="1420" y="230" as="sourcePoint" />
            <mxPoint x="1470" y="180" as="targetPoint" />
          </mxGeometry>
        </mxCell>
        <mxCell id="nbFku4bd-c8YuzLNbCXt-13" value="" style="endArrow=classic;html=1;rounded=0;exitX=0.5;exitY=1;exitDx=0;exitDy=0;entryX=0.5;entryY=0;entryDx=0;entryDy=0;" edge="1" parent="1" source="AA5wqpNzj-hvEJcued7X-33" target="Iq7Ngc-yNcRaKbJX_L3u-34">
          <mxGeometry width="50" height="50" relative="1" as="geometry">
            <mxPoint x="1690" y="180" as="sourcePoint" />
            <mxPoint x="1740" y="130" as="targetPoint" />
          </mxGeometry>
        </mxCell>
        <mxCell id="nbFku4bd-c8YuzLNbCXt-14" value="" style="endArrow=classic;html=1;rounded=0;exitX=0.5;exitY=1;exitDx=0;exitDy=0;entryX=0.5;entryY=0;entryDx=0;entryDy=0;" edge="1" parent="1" source="AA5wqpNzj-hvEJcued7X-33" target="Iq7Ngc-yNcRaKbJX_L3u-38">
          <mxGeometry width="50" height="50" relative="1" as="geometry">
            <mxPoint x="1850" y="210" as="sourcePoint" />
            <mxPoint x="1900" y="160" as="targetPoint" />
          </mxGeometry>
        </mxCell>
        <mxCell id="nbFku4bd-c8YuzLNbCXt-15" value="" style="endArrow=classic;html=1;rounded=0;entryX=0.5;entryY=0;entryDx=0;entryDy=0;" edge="1" parent="1" target="Iq7Ngc-yNcRaKbJX_L3u-3">
          <mxGeometry width="50" height="50" relative="1" as="geometry">
            <mxPoint x="1680" y="120" as="sourcePoint" />
            <mxPoint x="1920" y="130" as="targetPoint" />
          </mxGeometry>
        </mxCell>
        <mxCell id="nbFku4bd-c8YuzLNbCXt-16" value="" style="endArrow=classic;html=1;rounded=0;exitX=0.5;exitY=1;exitDx=0;exitDy=0;" edge="1" parent="1" source="AA5wqpNzj-hvEJcued7X-37">
          <mxGeometry width="50" height="50" relative="1" as="geometry">
            <mxPoint x="1990" y="180" as="sourcePoint" />
            <mxPoint x="2080" y="320" as="targetPoint" />
          </mxGeometry>
        </mxCell>
        <mxCell id="nbFku4bd-c8YuzLNbCXt-18" value="103234" style="text;html=1;strokeColor=none;fillColor=none;align=center;verticalAlign=middle;whiteSpace=wrap;rounded=0;rotation=90;" vertex="1" parent="1">
          <mxGeometry x="60" y="190" width="60" height="30" as="geometry" />
        </mxCell>
        <mxCell id="nbFku4bd-c8YuzLNbCXt-20" value="23981" style="text;html=1;strokeColor=none;fillColor=none;align=center;verticalAlign=middle;whiteSpace=wrap;rounded=0;rotation=-5;" vertex="1" parent="1">
          <mxGeometry x="170" y="290" width="50" height="20" as="geometry" />
        </mxCell>
        <mxCell id="nbFku4bd-c8YuzLNbCXt-21" value="812341" style="text;html=1;strokeColor=none;fillColor=none;align=center;verticalAlign=middle;whiteSpace=wrap;rounded=0;rotation=90;" vertex="1" parent="1">
          <mxGeometry x="260" y="190" width="60" height="30" as="geometry" />
        </mxCell>
        <mxCell id="nbFku4bd-c8YuzLNbCXt-22" value="953253" style="text;html=1;strokeColor=none;fillColor=none;align=center;verticalAlign=middle;whiteSpace=wrap;rounded=0;rotation=90;" vertex="1" parent="1">
          <mxGeometry x="460" y="190" width="60" height="30" as="geometry" />
        </mxCell>
        <mxCell id="nbFku4bd-c8YuzLNbCXt-23" value="75463" style="text;html=1;strokeColor=none;fillColor=none;align=center;verticalAlign=middle;whiteSpace=wrap;rounded=0;rotation=-45;" vertex="1" parent="1">
          <mxGeometry x="600" y="140" width="60" height="30" as="geometry" />
        </mxCell>
        <mxCell id="nbFku4bd-c8YuzLNbCXt-24" value="22345" style="text;html=1;strokeColor=none;fillColor=none;align=center;verticalAlign=middle;whiteSpace=wrap;rounded=0;rotation=10;" vertex="1" parent="1">
          <mxGeometry x="1900" y="270" width="60" height="30" as="geometry" />
        </mxCell>
        <mxCell id="nbFku4bd-c8YuzLNbCXt-25" value="10532" style="text;html=1;strokeColor=none;fillColor=none;align=center;verticalAlign=middle;whiteSpace=wrap;rounded=0;rotation=-30;" vertex="1" parent="1">
          <mxGeometry x="710" y="260" width="60" height="30" as="geometry" />
        </mxCell>
        <mxCell id="nbFku4bd-c8YuzLNbCXt-26" value="4521" style="text;html=1;strokeColor=none;fillColor=none;align=center;verticalAlign=middle;whiteSpace=wrap;rounded=0;rotation=-45;" vertex="1" parent="1">
          <mxGeometry x="880" y="260" width="60" height="30" as="geometry" />
        </mxCell>
        <mxCell id="nbFku4bd-c8YuzLNbCXt-27" value="10232" style="text;html=1;strokeColor=none;fillColor=none;align=center;verticalAlign=middle;whiteSpace=wrap;rounded=0;rotation=-45;" vertex="1" parent="1">
          <mxGeometry x="1110" y="230" width="60" height="30" as="geometry" />
        </mxCell>
        <mxCell id="nbFku4bd-c8YuzLNbCXt-28" value="2951" style="text;html=1;strokeColor=none;fillColor=none;align=center;verticalAlign=middle;whiteSpace=wrap;rounded=0;rotation=90;" vertex="1" parent="1">
          <mxGeometry x="1260" y="227.34" width="60" height="30" as="geometry" />
        </mxCell>
        <mxCell id="nbFku4bd-c8YuzLNbCXt-29" value="7295" style="text;html=1;strokeColor=none;fillColor=none;align=center;verticalAlign=middle;whiteSpace=wrap;rounded=0;rotation=90;" vertex="1" parent="1">
          <mxGeometry x="1460" y="260" width="60" height="30" as="geometry" />
        </mxCell>
        <mxCell id="nbFku4bd-c8YuzLNbCXt-30" value="1178" style="text;html=1;strokeColor=none;fillColor=none;align=center;verticalAlign=middle;whiteSpace=wrap;rounded=0;rotation=90;" vertex="1" parent="1">
          <mxGeometry x="1660" y="270" width="60" height="30" as="geometry" />
        </mxCell>
        <mxCell id="nbFku4bd-c8YuzLNbCXt-31" value="5091" style="text;html=1;strokeColor=none;fillColor=none;align=center;verticalAlign=middle;whiteSpace=wrap;rounded=0;rotation=45;" vertex="1" parent="1">
          <mxGeometry x="1740" y="180" width="60" height="30" as="geometry" />
        </mxCell>
        <mxCell id="nbFku4bd-c8YuzLNbCXt-32" value="234" style="text;html=1;strokeColor=none;fillColor=none;align=center;verticalAlign=middle;whiteSpace=wrap;rounded=0;rotation=45;" vertex="1" parent="1">
          <mxGeometry x="1980" y="220" width="60" height="30" as="geometry" />
        </mxCell>
      </root>
    </mxGraphModel>
  </diagram>
</mxfile>
